<svg xmlns="http://www.w3.org/2000/svg" width="300" height="300" viewBox="0 0 300 300"><g fill="#3D64AC"><path d="M67.55 142.06l-39.58-39.58-8.03 8.04L34.8 125.4 2.66 157.52l39.58 39.58 8.03-8.02L35.4 174.2l32.15-32.14zm-47 16.68l23.9-23.9 4.82 4.8-23.9 24.12-4.83-5.02zm74.33-44.8V126h13.26v7H94.88v27.33c0 6.23 1.8 9.84 6.83 9.84 2.5 0 4.1-.2 5.5-.6l.4 7.02c-1.8.6-4.6 1.2-8.22 1.2-4.2 0-7.83-1.4-9.84-3.8-2.4-2.9-3.62-7.3-3.62-13.3V133H78v-7h7.83v-9.45l9.05-2.6z"/><path d="M157.56 151.1c0 18.7-13.06 26.93-25.32 26.93-13.66 0-24.3-10.05-24.3-26.12 0-16.8 11.24-26.7 25.1-26.7 14.68-.2 24.52 10.5 24.52 25.9zm-39.98.4c0 11.06 6.23 19.5 15.27 19.5 8.84 0 15.47-8.24 15.47-19.7 0-8.63-4.22-19.28-15.27-19.28-10.85 0-15.47 10.04-15.47 19.5zm44.6-8.83c0-6.43-.2-11.66-.4-16.48h8.24l.6 8.6h.2c3.62-6.3 9.65-9.7 18.08-9.7 12.26 0 21.5 10.43 21.5 25.7 0 18.3-11.25 27.13-23.1 27.13-6.64 0-12.66-3-15.68-8.04h-.2v27.52h-9.04V142.6h-.2zm9.04 13.46c0 1.4.2 2.6.4 3.82 1.6 6.42 7.23 10.84 13.87 10.84 9.6 0 15.4-8.1 15.4-19.5 0-10.1-5.4-18.7-15.1-18.7-6.24 0-12.27 4.4-13.87 11.2-.4 1.2-.6 2.6-.6 3.6v8.63h-.2zm56.66-42.2V126h13.26v7h-13.26v27.33c0 6.23 1.8 9.84 6.83 9.84 2.5 0 4.1-.2 5.5-.6l.4 7.02c-1.8.6-4.6 1.2-8.2 1.2-4.2 0-7.84-1.4-9.85-3.8-2.6-2.9-3.6-7.3-3.6-13.3V133H211v-7h7.84v-9.45l9.04-2.6zm55.05 50.63c0 4.43.2 8.64.8 12.06h-8.24l-.8-6.43h-.4c-2.9 4-8.3 7.6-15.5 7.6-10.3 0-15.5-7.3-15.5-14.5 0-12.3 10.8-18.9 30.5-18.9v-1c0-4-1.2-11.67-11.46-11.67-4.83 0-9.65 1.4-13.27 3.8l-2-6.2c4.2-2.63 10.44-4.44 16.67-4.44 15.5 0 19.3 10.65 19.3 20.7v18.9h-.2zm-8.84-13.66c-10.1-.2-21.5 1.6-21.5 11.46 0 6.02 4 8.83 8.6 8.83 6.6 0 11-4.3 12.4-8.5.4-1 .4-2 .4-3v-8.88zm15.6-48.42h9.3v74.34h-9.27v-74.34z"/></g></svg>