<?xml version="1.0" encoding="utf-8"?>
<!-- Generator: Adobe Illustrator 16.0.0, SVG Export Plug-In . SVG Version: 6.00 Build 0)  -->
<!DOCTYPE svg PUBLIC "-//W3C//DTD SVG 1.1//EN" "http://www.w3.org/Graphics/SVG/1.1/DTD/svg11.dtd">
<svg version="1.1" id="Layer_1" xmlns="http://www.w3.org/2000/svg" xmlns:xlink="http://www.w3.org/1999/xlink" x="0px" y="0px"
	 width="300px" height="300px" viewBox="0 0 300 300" enable-background="new 0 0 300 300" xml:space="preserve">
<g>
	<defs>
		<rect id="SVGID_1_" x="3.5" y="113.777" width="306" height="68.932"/>
	</defs>
	<clipPath id="SVGID_2_">
		<use xlink:href="#SVGID_1_"  overflow="visible"/>
	</clipPath>
	<path clip-path="url(#SVGID_2_)" fill="#263746" d="M26.12,120.478c4.484,0,7.727,1.42,10.748,4.131
		c0.399,0.354,0.399,0.888,0.045,1.242l-2.708,2.8c-0.313,0.354-0.755,0.354-1.112,0c-1.865-1.644-4.352-2.621-6.84-2.621
		c-5.686,0-9.904,4.753-9.904,10.348c0,5.553,4.263,10.26,9.947,10.26c2.665,0,4.931-1.021,6.796-2.531
		c0.357-0.313,0.844-0.27,1.112,0l2.751,2.841c0.356,0.312,0.268,0.888-0.043,1.197c-3.022,2.935-6.84,4.312-10.792,4.312
		c-8.883,0-16.035-7.063-16.035-15.945C10.085,127.629,17.237,120.478,26.12,120.478"/>
	<path clip-path="url(#SVGID_2_)" fill="#263746" d="M57.206,146.682c5.594,0,10.215-4.575,10.215-10.17
		c0-5.598-4.621-10.259-10.215-10.259c-5.595,0-10.171,4.661-10.171,10.259C47.035,142.107,51.61,146.682,57.206,146.682
		 M57.206,120.478c8.881,0,15.988,7.151,15.988,16.034c0,8.882-7.106,15.945-15.988,15.945c-8.883,0-15.945-7.063-15.945-15.945
		C41.26,127.629,48.323,120.478,57.206,120.478"/>
	<path clip-path="url(#SVGID_2_)" fill="#263746" d="M79.896,121.277c0-0.443,0.399-0.799,0.844-0.799h1.109l18.476,19.63h0.046
		v-18.343c0-0.446,0.354-0.845,0.843-0.845h4.087c0.443,0,0.843,0.398,0.843,0.845v29.89c0,0.444-0.399,0.797-0.843,0.797h-1.067
		l-18.562-20.384h-0.048v19.097c0,0.447-0.353,0.846-0.841,0.846H80.74c-0.444,0-0.844-0.398-0.844-0.846V121.277z"/>
	<path clip-path="url(#SVGID_2_)" fill="#263746" d="M119.287,126.251h-6.796c-0.488,0-0.841-0.398-0.841-0.844v-3.641
		c0-0.445,0.354-0.844,0.841-0.844h19.411c0.486,0,0.842,0.399,0.842,0.844v3.641c0,0.445-0.356,0.844-0.842,0.844h-6.795v24.917
		c0,0.442-0.399,0.842-0.844,0.842h-4.13c-0.446,0-0.845-0.399-0.845-0.842V126.251z"/>
	<path clip-path="url(#SVGID_2_)" fill="#263746" d="M138.248,121.765c0-0.443,0.4-0.843,0.844-0.843h4.13
		c0.446,0,0.845,0.4,0.845,0.843v29.403c0,0.443-0.399,0.844-0.845,0.844h-4.13c-0.444,0-0.844-0.4-0.844-0.844V121.765z"/>
	<path clip-path="url(#SVGID_2_)" fill="#263746" d="M153.036,121.277c0-0.443,0.398-0.799,0.845-0.799h1.108l18.476,19.63h0.046
		v-18.343c0-0.446,0.353-0.845,0.843-0.845h4.088c0.442,0,0.842,0.398,0.842,0.845v29.89c0,0.444-0.399,0.797-0.842,0.797h-1.068
		l-18.561-20.384h-0.049v19.097c0,0.447-0.354,0.846-0.841,0.846h-4.042c-0.446,0-0.845-0.398-0.845-0.846V121.277z"/>
	<path clip-path="url(#SVGID_2_)" fill="#263746" d="M187.808,121.765c0-0.443,0.398-0.843,0.845-0.843h4.218
		c0.49,0,0.847,0.4,0.847,0.843v18.165c0,3.776,2.574,6.75,6.437,6.75c3.864,0,6.485-2.974,6.485-6.704v-18.21
		c0-0.443,0.357-0.843,0.843-0.843h4.223c0.442,0,0.841,0.4,0.841,0.843v18.477c0,6.75-5.373,12.213-12.392,12.213
		c-6.973,0-12.346-5.463-12.346-12.213V121.765z"/>
	<path clip-path="url(#SVGID_2_)" fill="#263746" d="M220.625,121.765c0-0.443,0.399-0.843,0.845-0.843h4.219
		c0.489,0,0.846,0.4,0.846,0.843v18.165c0,3.776,2.575,6.75,6.438,6.75c3.864,0,6.485-2.974,6.485-6.704v-18.21
		c0-0.443,0.354-0.843,0.842-0.843h4.221c0.442,0,0.843,0.4,0.843,0.843v18.477c0,6.75-5.372,12.213-12.391,12.213
		c-6.975,0-12.348-5.463-12.348-12.213V121.765z"/>
	<path clip-path="url(#SVGID_2_)" fill="#263746" d="M257.13,121.144c0.042-0.356,0.311-0.665,0.802-0.665h0.708
		c0.355,0,0.622,0.176,0.755,0.441l9.77,20.964h0.134l9.771-20.964c0.133-0.266,0.357-0.441,0.755-0.441h0.711
		c0.489,0,0.755,0.309,0.8,0.665l5.242,29.847c0.133,0.621-0.223,1.021-0.801,1.021h-4.042c-0.399,0-0.753-0.356-0.843-0.666
		l-2.62-16.833h-0.134l-7.771,17.456c-0.09,0.265-0.355,0.485-0.755,0.485h-0.802c-0.4,0-0.621-0.221-0.754-0.485l-7.861-17.456
		h-0.135l-2.574,16.833c-0.045,0.31-0.398,0.666-0.8,0.666h-3.996c-0.578,0-0.933-0.4-0.846-1.021L257.13,121.144z"/>
	<path clip-path="url(#SVGID_2_)" fill="#263746" d="M180.033,170.964l-2.503-5.571h-0.101l-2.481,5.571H180.033z M170.819,175.276
		l6.244-13.688c0.061-0.12,0.244-0.222,0.347-0.222h0.204c0.1,0,0.282,0.102,0.346,0.222l6.202,13.688
		c0.122,0.264-0.041,0.528-0.347,0.528h-1.28c-0.244,0-0.387-0.121-0.468-0.304l-1.262-2.786h-6.65
		c-0.406,0.938-0.832,1.852-1.24,2.786c-0.062,0.142-0.226,0.304-0.47,0.304h-1.279C170.861,175.805,170.697,175.54,170.819,175.276
		"/>
	<path clip-path="url(#SVGID_2_)" fill="#263746" d="M187.817,161.73c0-0.203,0.185-0.365,0.388-0.365h0.509l8.826,10.211h0.02
		v-9.621c0-0.202,0.164-0.386,0.386-0.386h1.305c0.201,0,0.384,0.184,0.384,0.386v13.687c0,0.204-0.183,0.367-0.384,0.367h-0.53
		l-8.826-10.495h-0.02v9.906c0,0.201-0.165,0.384-0.389,0.384h-1.28c-0.203,0-0.388-0.183-0.388-0.384V161.73z"/>
	<path clip-path="url(#SVGID_2_)" fill="#263746" d="M212.506,170.964l-2.504-5.571h-0.101l-2.48,5.571H212.506z M203.291,175.276
		l6.244-13.688c0.061-0.12,0.246-0.222,0.346-0.222h0.204c0.104,0,0.283,0.102,0.346,0.222l6.203,13.688
		c0.12,0.264-0.041,0.528-0.346,0.528h-1.283c-0.241,0-0.386-0.121-0.466-0.304l-1.262-2.786h-6.65
		c-0.407,0.938-0.831,1.852-1.239,2.786c-0.063,0.142-0.225,0.304-0.471,0.304h-1.278
		C203.332,175.805,203.168,175.54,203.291,175.276"/>
	<path clip-path="url(#SVGID_2_)" fill="#263746" d="M220.291,161.955c0-0.204,0.16-0.388,0.386-0.388h1.343
		c0.203,0,0.386,0.184,0.386,0.388v11.958h5.511c0.227,0,0.388,0.184,0.388,0.389v1.116c0,0.202-0.161,0.389-0.388,0.389h-7.239
		c-0.226,0-0.386-0.187-0.386-0.389V161.955z"/>
	<path clip-path="url(#SVGID_2_)" fill="#263746" d="M233.812,168.952l-4.758-6.794c-0.164-0.265,0-0.591,0.324-0.591h1.505
		c0.162,0,0.265,0.102,0.325,0.185l3.682,5.188l3.684-5.188c0.061-0.083,0.182-0.185,0.324-0.185h1.525
		c0.325,0,0.487,0.326,0.325,0.591l-4.82,6.771v6.49c0,0.201-0.184,0.385-0.387,0.385h-1.343c-0.225,0-0.387-0.184-0.387-0.385
		V168.952z"/>
	<path clip-path="url(#SVGID_2_)" fill="#263746" d="M246.948,163.48h-3.315c-0.225,0-0.388-0.185-0.388-0.388v-1.137
		c0-0.204,0.163-0.389,0.388-0.389h8.746c0.221,0,0.384,0.185,0.384,0.389v1.137c0,0.203-0.163,0.388-0.384,0.388h-3.316v11.939
		c0,0.201-0.183,0.387-0.388,0.387h-1.341c-0.202,0-0.386-0.186-0.386-0.387V163.48z"/>
	<path clip-path="url(#SVGID_2_)" fill="#263746" d="M256.585,161.955c0-0.204,0.184-0.388,0.386-0.388h1.342
		c0.204,0,0.386,0.184,0.386,0.388v13.463c0,0.202-0.182,0.389-0.386,0.389h-1.342c-0.202,0-0.386-0.187-0.386-0.389V161.955z"/>
	<path clip-path="url(#SVGID_2_)" fill="#263746" d="M270.574,161.365c2.056,0,3.54,0.691,4.924,1.894
		c0.182,0.161,0.182,0.405,0.019,0.567l-0.894,0.914c-0.146,0.186-0.325,0.186-0.509,0c-0.958-0.832-2.259-1.361-3.521-1.361
		c-2.905,0-5.105,2.439-5.105,5.287c0,2.851,2.219,5.27,5.128,5.27c1.483,0,2.521-0.592,3.498-1.344
		c0.184-0.143,0.363-0.123,0.487-0.021l0.938,0.917c0.162,0.14,0.122,0.405-0.022,0.548c-1.383,1.343-3.132,1.974-4.942,1.974
		c-4.066,0-7.343-3.232-7.343-7.302C263.231,164.641,266.508,161.365,270.574,161.365"/>
	<path clip-path="url(#SVGID_2_)" fill="#263746" d="M279.134,173.752c0.184-0.264,0.346-0.569,0.529-0.835
		c0.182-0.264,0.467-0.346,0.689-0.162c0.123,0.101,1.688,1.404,3.255,1.404c1.404,0,2.298-0.855,2.298-1.89
		c0-1.224-1.057-1.996-3.069-2.832c-2.077-0.873-3.702-1.949-3.702-4.31c0-1.586,1.219-3.763,4.453-3.763
		c2.034,0,3.56,1.058,3.764,1.199c0.161,0.103,0.326,0.388,0.124,0.693c-0.166,0.241-0.348,0.526-0.51,0.771
		c-0.166,0.266-0.429,0.389-0.714,0.204c-0.144-0.083-1.566-1.016-2.746-1.016c-1.707,0-2.297,1.077-2.297,1.829
		c0,1.159,0.896,1.871,2.581,2.563c2.359,0.955,4.374,2.074,4.374,4.556c0,2.114-1.892,3.845-4.536,3.845
		c-2.48,0-4.048-1.302-4.371-1.607C279.071,174.237,278.929,174.098,279.134,173.752"/>
	<path clip-path="url(#SVGID_2_)" fill="#263746" d="M292.537,120.468c2.271,0,4.128,1.859,4.128,4.128
		c0,2.27-1.857,4.116-4.128,4.116s-4.116-1.846-4.116-4.116C288.421,122.327,290.267,120.468,292.537,120.468 M292.537,127.921
		c1.846,0,3.326-1.49,3.326-3.325c0-1.845-1.48-3.326-3.326-3.326c-1.833,0-3.324,1.481-3.324,3.326
		C289.213,126.431,290.704,127.921,292.537,127.921 M291.06,122.705c0-0.114,0.091-0.218,0.217-0.218h1.697
		c0.71,0,1.409,0.482,1.409,1.352c0,0.815-0.527,1.137-0.872,1.262c0.207,0.425,0.413,0.86,0.609,1.273
		c0.079,0.148-0.035,0.31-0.196,0.31h-0.514c-0.093,0-0.172-0.081-0.208-0.162l-0.573-1.353h-0.709v1.296
		c0,0.114-0.093,0.218-0.218,0.218h-0.426c-0.126,0-0.217-0.104-0.217-0.218V122.705z M292.916,124.413
		c0.344,0,0.572-0.252,0.572-0.561c0-0.333-0.229-0.563-0.572-0.563h-1.021v1.124H292.916z"/>
</g>
</svg>
