<svg xmlns="http://www.w3.org/2000/svg" viewBox="0 0 620 208" width="620" height="208">
    <path fill="#4285F4" d="M79.87 159.07C36.48 159.07 0 123.74 0 80.35S36.48 1.63 79.87 1.63c24 0 41.09 9.41 53.95 21.7L118.65 38.5c-9.21-8.64-21.7-15.36-38.78-15.36-31.68 0-56.45 25.54-56.45 57.22s24.77 57.22 56.45 57.22c20.54 0 32.26-8.26 39.74-15.74 6.14-6.14 10.18-14.98 11.71-27.07H80v-21.5h72.26c.77 3.84 1.15 8.45 1.15 13.44 0 16.13-4.42 36.1-18.62 50.3-13.83 14.38-31.49 22.06-54.92 22.06z"/>
    <path fill="#EA4335" d="M261.88 108.38c0 29.18-22.85 50.69-50.88 50.69s-50.88-21.5-50.88-50.69c0-29.38 22.85-50.69 50.88-50.69s50.88 21.32 50.88 50.69zm-22.27 0c0-18.24-13.25-30.72-28.61-30.72s-28.61 12.48-28.61 30.72c0 18.05 13.25 30.72 28.61 30.72s28.61-12.67 28.61-30.72z"/>
    <path fill="#FBBC05" d="M371.88 108.38c0 29.18-22.85 50.69-50.88 50.69s-50.88-21.5-50.88-50.69c0-29.38 22.85-50.69 50.88-50.69 28.03.01 50.88 21.32 50.88 50.69zm-22.27 0c0-18.24-13.25-30.72-28.61-30.72s-28.61 12.48-28.61 30.72c0 18.05 13.25 30.72 28.61 30.72s28.61-12.67 28.61-30.72z"/>
    <path fill="#4285F4" d="M477 61v90.78c0 37.44-21.93 52.8-48.04 52.8-24.58 0-39.36-16.51-44.93-29.95l19.39-8.06c3.46 8.26 11.9 18.05 25.54 18.05 16.7 0 27.07-10.37 27.07-29.76v-7.3h-.77c-4.99 6.14-14.59 11.52-26.69 11.52-25.34 0-48.58-22.08-48.58-50.5 0-28.61 23.23-50.88 48.58-50.88 12.1 0 21.7 5.38 26.69 11.33h.77V61H477zm-19.43 47.58c0-17.86-11.9-30.91-27.07-30.91-15.36 0-28.22 13.06-28.22 30.91 0 17.67 12.86 30.53 28.22 30.53 15.16-.01 27.07-12.87 27.07-30.53z"/>
    <path fill="#34A853" d="M513.27 7.01V156H491V7.01h22.27z"/>
    <path fill="#EA4335" d="M598.35 125.09l17.28 11.52c-5.57 8.26-19.01 22.46-42.24 22.46-28.8 0-50.29-22.27-50.29-50.69 0-30.14 21.68-50.69 47.79-50.69 26.3 0 39.17 20.93 43.39 32.26l2.3 5.76-67.78 28.03c5.18 10.18 13.25 15.36 24.58 15.36s19.21-5.56 24.97-14.01zm-53.19-18.24l45.31-18.82c-2.5-6.34-9.98-10.75-18.82-10.75-11.32 0-27.06 9.98-26.49 29.57z"/>
    <path fill="none" d="M0 0h620v208H0z"/>
</svg>
