<svg xmlns="http://www.w3.org/2000/svg" width="300" height="300" viewBox="0 0 300 300"><path d="M289.85 141.1c0-2.4 1.85-4.36 4.18-4.36 2.28 0 4.17 1.96 4.17 4.37 0 2.5-1.9 4.5-4.17 4.5-2.33 0-4.18-1.95-4.18-4.4m7.22 0c0-1.96-1.28-3.36-3.04-3.36-1.8 0-3.06 1.4-3.06 3.37 0 1.98 1.25 3.38 3.06 3.38 1.76 0 3.04-1.35 3.04-3.36m-1 2.4H295l-1.02-2h-.76v2h-.96v-4.8h2.17c1.16 0 1.76.36 1.76 1.5 0 .86-.5 1.22-1.3 1.26l1.1 2.05zm-1.56-2.7c.6 0 .9-.14.9-.7 0-.64-.6-.6-1.1-.6h-1v1.3h1.3zm-266-8.47h-9.6v32.5h-7.5v-32.5H1.8v-6.62h26.65m9.8 13.9c2.24-1.97 4.96-3.54 7.93-3.54 2.9 0 7 1.83 7 8.77v20h-7.03v-17c0-2.22.16-5.8-2.9-5.8-2.04 0-3.65 1.57-4.97 3.05v19.7h-7.02v-39.1h7.02v13.9m17.82 11.1c0-7.5 3.9-14.7 11.68-14.7 7.78 0 11.67 7.2 11.67 14.7 0 7.47-3.93 14.7-11.68 14.7-7.74 0-11.67-7.27-11.67-14.7m16.13 0c0-3.5-.68-9.2-4.46-9.2-3.8 0-4.45 5.7-4.45 9.2 0 3.53.68 9.2 4.45 9.2 3.82 0 4.46-5.67 4.46-9.2m25.24 11.16c-2.25 1.96-4.98 3.53-7.95 3.53-2.88 0-6.98-1.9-6.98-8.8v-20h7.02v16.9c0 2.23-.12 5.8 2.9 5.8 2.04 0 3.65-1.57 4.97-3.05v-19.7h7.02v28.16h-7.02v-2.9m18.57-6.3c-.8 0-2 .42-2 1.75 0 3.65 18.46-2.73 18.46 8.3 0 4.18-2.65 8.6-13.2 8.6-9.2 0-12.32-3.42-12.32-7.1 0-2.18 1.28-3.26 2.9-4.27-1.17-.93-2.1-1.97-2.1-3.58 0-2.8 1.4-4.2 3.5-5.64-1.97-2-3.34-4.5-3.34-7.7 0-6.2 4.98-9.85 10.72-9.85 2.32 0 4.57.75 6.54 2 1.44-1.4 2.7-2.3 4.8-2.3.7 0 1.38.03 2.06.2v5.2c-.72-.3-1.5-.6-2.25-.6-.76 0-1.24.24-1.9.6.78 1.53 1.38 3.2 1.46 4.8 0 6.2-4.94 9.85-10.72 9.85l-2.6-.26m-2.2 9.3c-.6.45-1.1.85-1.1 1.77 0 2.6 5 2.78 6.7 2.78 1.2 0 7.4-.15 7.4-2.4 0-1.44-1-1.32-5.13-1.56l-7.83-.56zm4.9-14.04c2.94 0 3.8-2.6 3.8-5.23 0-2.56-1.1-4.73-3.8-4.73-2.92 0-3.84 2.62-3.84 5.3 0 2.57 1.16 4.66 3.85 4.66m23.47-11.26c2.26-1.96 5-3.53 7.96-3.53 2.9 0 7 1.83 7 8.77v20H150v-17c0-2.23.16-5.8-2.9-5.8-2.03 0-3.64 1.56-4.96 3.04v19.7h-7.07v-39.04h7.03v13.9m27.72-2.93h5.46v6.2h-5.46v14.3c0 1.4.36 2.8 2.65 2.8 1.2 0 1.97-.52 2.8-1.04v5.7c-1.47.44-3 .84-4.52.84-4.38 0-8-2.6-8-8.78v-13.8h-3.28v-6.17h3.3v-7.03h7v7m34.77 28.18h-3.78l-6.3-32h-.08l-6.62 32H184l-7.8-39.14h3.74L186 157.3h.12l6.66-31.57h3.65l6.3 31.58h.12l6.5-31.52H213M211.4 151c0-10.4 4.65-14.68 10.5-14.68s10.53 4.3 10.53 14.68c0 10.4-4.66 14.7-10.52 14.7s-10.5-4.3-10.5-14.7m17.3 0c0-4.73-1.1-11.35-6.8-11.35-5.6 0-6.7 6.62-6.7 11.35 0 4.74 1.1 11.36 6.8 11.36 5.7 0 6.8-6.62 6.8-11.36m10.28-7.9h.1c1.48-3.33 3.37-6.38 7.26-6.38h1.45v3.57c-4.86-.8-7.4 4.8-8.8 8.8v15.7h-3.68v-27.7h3.7v5.97m15.5 6.9l9.75-12.87h4.15l-7.24 9.5 8.3 18.27h-3.96l-6.76-15.1-4.25 5.6v9.5h-3.7v-39.13h3.7m31 17.54c-1.5-2.33-3.2-3.7-6-3.7-2.4 0-4.7 1.3-4.7 4.14 0 6.78 13.87 3.8 13.87 13.16 0 5.42-3.66 8.75-8.6 8.75-4.2 0-7.66-1.97-9.8-5.86l2.98-1.97c1.4 2.85 3.7 4.5 6.83 4.5 2.7 0 5.12-1.57 5.12-4.74 0-6.98-13.85-3.7-13.85-13.64 0-4.78 3.7-7.7 8-7.7 3.67 0 6.7 1.6 8.77 4.8l-2.64 2.26"/></svg>