<?xml version="1.0" encoding="utf-8"?>
<!-- Generator: Adobe Illustrator 16.0.0, SVG Export Plug-In . SVG Version: 6.00 Build 0)  -->
<!DOCTYPE svg PUBLIC "-//W3C//DTD SVG 1.1//EN" "http://www.w3.org/Graphics/SVG/1.1/DTD/svg11.dtd">
<svg version="1.1" id="Layer_1" xmlns="http://www.w3.org/2000/svg" xmlns:xlink="http://www.w3.org/1999/xlink" x="0px" y="0px"
	 width="300px" height="300px" viewBox="0 0 300 300" enable-background="new 0 0 300 300" xml:space="preserve">
<path fill="#00693A" d="M86.619,152.683c-8.104,12.95-16.728,26.736-18.263,29.75l-5.91-3.487l2.03,21.909l21.694-7.907
	l-5.701-3.367l13.588-22.125C91.842,163.045,89.266,157.929,86.619,152.683 M77.588,181.059l-1.141,1.809
	c-0.081,0.128-0.22,0.199-0.362,0.199c-0.077,0-0.156-0.021-0.227-0.065c-0.201-0.126-0.26-0.392-0.134-0.592l1.14-1.807
	c0.128-0.199,0.391-0.26,0.59-0.134S77.714,180.857,77.588,181.059 M81.24,175.277l-1.141,1.807
	c-0.083,0.126-0.221,0.197-0.363,0.197c-0.077,0-0.158-0.021-0.229-0.065c-0.198-0.124-0.258-0.389-0.132-0.591l1.14-1.807
	c0.127-0.199,0.391-0.258,0.592-0.134C81.306,174.812,81.366,175.076,81.24,175.277 M84.889,169.491l-1.14,1.808
	c-0.081,0.129-0.22,0.199-0.362,0.199c-0.076,0-0.158-0.021-0.228-0.064c-0.199-0.127-0.259-0.392-0.133-0.591l1.141-1.807
	c0.128-0.2,0.391-0.26,0.588-0.135C84.956,169.03,85.015,169.293,84.889,169.491 M87.4,165.517
	c-0.082,0.127-0.219,0.199-0.361,0.199c-0.08,0-0.159-0.022-0.229-0.067c-0.198-0.126-0.258-0.391-0.132-0.589l1.14-1.808
	c0.126-0.199,0.391-0.261,0.59-0.133c0.199,0.125,0.259,0.391,0.133,0.59L87.4,165.517z"/>
<g>
	<path fill="#00693A" d="M245.627,135.309c1.109-7.246,8.019-13.175,15.349-13.175h24.201c7.331,0,12.421,5.929,11.309,13.175
		l-5.08,33.137c-1.112,7.247-8.02,13.175-15.35,13.175h-24.2c-7.33,0-12.421-5.928-11.308-13.175L245.627,135.309z M279.723,141.389
		c0.283-1.979-1.12-3.6-3.119-3.602l-12.136-0.008c-1.999,0-3.866,1.617-4.148,3.596l-3.012,20.994
		c-0.283,1.978,1.12,3.597,3.121,3.6l12.134,0.007c2,0.002,3.868-1.615,4.151-3.595L279.723,141.389z"/>
	<path fill="#00693A" d="M227.821,99.798l-3.201,22.336h-22.013c-7.33,0-14.238,5.929-15.351,13.175l-5.078,33.137
		c-1.111,7.247,3.976,13.175,11.309,13.175h24.201c7.328,0,14.237-5.928,15.349-13.175l10.343-68.635L227.821,99.798z
		 M221.354,141.389l-3.011,20.992c-0.283,1.979-2.148,3.597-4.15,3.595l-12.135-0.007c-1.999-0.003-3.401-1.622-3.118-3.6
		l3.008-20.994c0.283-1.979,2.153-3.596,4.15-3.596l12.136,0.008C220.234,137.79,221.638,139.41,221.354,141.389"/>
	<path fill="#00693A" d="M168.44,122.135h-7.559h-0.828h-4.126h-24.344l-2.227,15.544h14.967h5.586l10.534,0.003
		c1.666,0,2.835,1.348,2.599,2.999l-0.14,1.118h-21.655c-7.331,0-14.239,5.928-15.35,13.175l-2.088,13.473
		c-1.11,7.246,3.979,13.175,11.31,13.175h24.199c7.33,0,14.24-5.929,15.35-13.175l5.078-33.138
		C180.859,128.062,175.77,122.135,168.44,122.135 M160.056,159.39l-0.515,3.582c-0.236,1.65-1.793,2.999-3.459,2.999l-12.57-0.004
		c-1.665-0.001-2.836-1.35-2.598-2.997l0.513-3.585c0.237-1.649,1.794-2.998,3.458-2.998l12.571,0.001
		C159.121,156.389,160.292,157.738,160.056,159.39"/>
	<path fill="#00693A" d="M50.029,122.135H42.47h-0.828h-4.124H13.174l-2.229,15.544h14.967H31.5l10.534,0.003
		c1.666,0,2.834,1.348,2.599,2.999l-0.141,1.118H22.835c-7.331,0-14.239,5.928-15.349,13.175l-2.088,13.473
		c-1.109,7.246,3.979,13.175,11.31,13.175h24.2c7.331,0,14.238-5.929,15.35-13.175l5.079-33.138
		C62.448,128.062,57.36,122.135,50.029,122.135 M41.644,159.39l-0.513,3.582c-0.237,1.65-1.793,2.999-3.46,2.999l-12.569-0.004
		c-1.666-0.001-2.837-1.35-2.6-2.997l0.514-3.585c0.237-1.649,1.794-2.998,3.458-2.998l12.572,0.001
		C40.712,156.389,41.88,157.738,41.644,159.39"/>
	<path fill="#00693A" d="M116.94,130.195c0,0,2.833-5.561,8.478-8.061h-15.776c0,0-4.359-0.359-8.257,6.626
		c-0.733,1.312-2.416,4.083-4.659,7.711l7.448,14.509L116.94,130.195z M103.144,140.573l-1.14,1.809
		c-0.081,0.127-0.22,0.199-0.362,0.199c-0.078,0-0.157-0.022-0.227-0.065c-0.201-0.126-0.26-0.392-0.135-0.592l1.142-1.807
		c0.127-0.198,0.389-0.259,0.589-0.134C103.211,140.11,103.272,140.373,103.144,140.573"/>
	<path fill="#00693A" d="M114.526,173.562l-30.485-59.386l5.702-3.365l-20.841-7.907l-2.884,21.907l5.907-3.486
		c2.817,5.517,23.813,47.023,27.047,53.673c3.299,6.788,8.255,6.625,8.255,6.625h15.777
		C117.358,179.121,114.526,173.562,114.526,173.562 M82.031,125.555c-0.062,0.032-0.127,0.045-0.192,0.045
		c-0.156,0-0.307-0.086-0.382-0.237l-0.956-1.912c-0.106-0.211-0.019-0.469,0.19-0.573c0.213-0.105,0.469-0.022,0.574,0.191
		l0.957,1.911C82.328,125.192,82.242,125.45,82.031,125.555 M85.09,131.673c-0.062,0.03-0.126,0.043-0.192,0.043
		c-0.155,0-0.306-0.083-0.382-0.235l-0.955-1.912c-0.106-0.211-0.021-0.467,0.19-0.573c0.212-0.106,0.468-0.02,0.574,0.192
		l0.957,1.91C85.387,131.31,85.3,131.568,85.09,131.673 M88.148,137.791c-0.062,0.031-0.127,0.044-0.19,0.044
		c-0.157,0-0.308-0.086-0.384-0.237l-0.955-1.911c-0.106-0.211-0.02-0.469,0.191-0.574c0.211-0.104,0.467-0.021,0.573,0.192
		l0.957,1.911C88.445,137.428,88.359,137.685,88.148,137.791 M91.207,143.908c-0.061,0.032-0.127,0.043-0.19,0.043
		c-0.157,0-0.308-0.084-0.383-0.235l-0.955-1.912c-0.106-0.211-0.02-0.468,0.189-0.573c0.213-0.105,0.469-0.02,0.576,0.192
		l0.956,1.911C91.504,143.545,91.42,143.801,91.207,143.908 M94.266,150.025c-0.062,0.029-0.127,0.045-0.192,0.045
		c-0.156,0-0.307-0.087-0.382-0.236l-0.956-1.912c-0.104-0.211-0.019-0.468,0.19-0.573c0.212-0.105,0.469-0.02,0.574,0.191
		l0.956,1.911C94.562,149.663,94.477,149.919,94.266,150.025 M97.325,156.143c-0.062,0.03-0.128,0.043-0.192,0.043
		c-0.156,0-0.307-0.084-0.382-0.234l-0.954-1.911c-0.107-0.213-0.021-0.468,0.188-0.573c0.213-0.104,0.469-0.02,0.575,0.19
		l0.957,1.912C97.62,155.78,97.536,156.036,97.325,156.143 M100.384,162.261c-0.062,0.029-0.126,0.044-0.19,0.044
		c-0.157,0-0.308-0.086-0.384-0.236l-0.956-1.911c-0.106-0.213-0.019-0.469,0.19-0.573c0.212-0.104,0.468-0.021,0.574,0.189
		l0.957,1.913C100.68,161.897,100.595,162.155,100.384,162.261 M103.442,168.378c-0.061,0.03-0.127,0.043-0.19,0.043
		c-0.157,0-0.309-0.085-0.384-0.235l-0.955-1.91c-0.106-0.213-0.02-0.47,0.19-0.573c0.212-0.105,0.469-0.021,0.575,0.189
		l0.955,1.913C103.739,168.016,103.653,168.271,103.442,168.378"/>
</g>
</svg>
