<svg xmlns="http://www.w3.org/2000/svg" width="300" height="300" viewBox="0 0 300 300"><path fill="#344243" d="M144.12 120.1c-15.9 0-28.84-12.83-28.84-28.6 0-15.8 12.93-28.63 28.84-28.63s28.84 12.84 28.84 28.62c0 15.7-12.94 28.6-28.84 28.6z"/><path fill="#344243" d="M107.13 237.13c-8.26 0-15.2-1.8-20.58-5.34-1.06-.7-2.05-1.5-2.98-2.3-1.42.9-2.9 1.7-4.45 2.5-7.13 3.4-14.8 5.1-22.82 5.1-8.1 0-15.76-1.6-22.72-4.6-7-3.1-13.12-7.5-18.2-13.1-4.98-5.5-8.9-12.1-11.63-19.6-2.7-7.3-4.05-15.35-4.05-23.9 0-8.2 1.24-16 3.7-23.2 2.5-7.38 6.08-13.9 10.67-19.38 4.73-5.67 10.45-10.17 17-13.36 6.68-3.25 13.62-4.9 21.53-4.9 5.37 0 10.9.82 14.9 2.46V93.4c0-6.96 6.7-10.9 13.77-10.9h33.65c7 0 12.58 3.83 12.58 10.9v89.06c5 1.8 10 6.5 10 11.9v28.33c0 6.1-5.3 11.4-11.4 12.4-3.65.62-7.36 1.1-10.2 1.42-3.08.35-6.32.52-8.78.52z"/><path fill="#FFF" d="M122.16 192.9c-2.64-.2-4.45-.8-5.36-1.76-.62-.66-1.3-2.17-1.3-5.64V93.4c0-.8.22-.9-.58-.9H81.27c-.8 0-1.77.1-1.77.9v45.1c-3-3.25-5.54-5.9-9.3-7.94-5.2-2.82-10.93-4.25-17.17-4.25-6.2 0-11.93 1.3-17.07 3.8-5.12 2.5-9.58 6-13.3 10.5-3.7 4.48-6.6 9.8-8.66 15.8-2.05 6.06-3.08 12.6-3.08 19.6 0 7.26 1.13 14 3.37 20.1 2.2 6.1 5.4 11.46 9.4 15.9 4 4.43 8.8 7.9 14.4 10.35 5.5 2.43 11.6 3.67 18.2 3.67 6.3 0 12.3-1.36 17.9-4.04 4.63-2.2 8.53-5.53 11.6-9.9 1.96 9.26 9.1 13.95 21.23 13.95 2.02 0 4.4-.15 7.06-.45 2.6-.3 4.66-.73 8.1-1.33.7-.1.2-.7.2-1.42v-28.4c0-.77.4-1.4-.35-1.46z"/><ellipse fill="#50C6E4" cx="144.12" cy="91.49" rx="17.62" ry="17.41"/></svg>