<svg xmlns:sodipodi="http://inkscape.sourceforge.net/DTD/sodipodi-0.dtd" sodipodi:docbase="/home/sdeibel" sodipodi:docname="logo-python-generic.svg" sodipodi:version=".32" xmlns="http://www.w3.org/2000/svg" width="111.16" height="112.39" viewBox="5.591 6.397 111.162 112.39"><sodipodi:namedview borderopacity="1" pagecolor="#ffffff" bordercolor="#666666"/><g fill="#FFF"><path d="M60.5 6.4c-4.57.02-8.95.4-12.8 1.1-11.35 2-13.4 6.2-13.4 13.93v10.22h26.8v3.4H24.23c-7.8 0-14.62 4.7-16.75 13.6-2.46 10.2-2.57 16.6 0 27.25 1.9 7.94 6.46 13.6 14.25 13.6h9.22V77.23c0-8.85 7.66-16.65 16.75-16.65h26.78c7.45 0 13.4-6.15 13.4-13.64v-25.5c0-7.28-6.12-12.74-13.4-13.95-4.6-.8-9.4-1.14-13.97-1.1zM46 14.62c2.78 0 5.04 2.3 5.04 5.12 0 2.82-2.26 5.1-5.03 5.1-2.75 0-5-2.28-5-5.1s2.25-5.12 5.03-5.12z"/><path d="M91.23 35.05v11.9c0 9.24-7.83 17-16.75 17H47.7c-7.34 0-13.4 6.3-13.4 13.63v25.54c0 7.26 6.3 11.54 13.4 13.62 8.48 2.5 16.62 2.95 26.78 0 6.75-1.95 13.4-5.9 13.4-13.62V92.9H61.1v-3.4h40.18c7.8 0 10.7-5.44 13.42-13.6 2.8-8.4 2.68-16.48 0-27.25-1.93-7.76-5.6-13.6-13.4-13.6H91.22zM76.17 99.7c2.78 0 5.03 2.3 5.03 5.1 0 2.83-2.25 5.13-5.03 5.13-2.77 0-5.03-2.3-5.03-5.13 0-2.8 2.26-5.1 5.03-5.1z"/></g></svg>