<svg xmlns="http://www.w3.org/2000/svg" width="23.91" height="23.77" viewBox="0 0 23.91 23.774"><g fill="#fff"><path d="M23.5 1.03L17.37 0c-.1 0-.2 0-.3.04l-5.68 2.6L6.6.48C6.5.4 6.37.4 6.25.48L.32 2.65c-.2.1-.32.27-.32.48V18.3c0 .16.08.3.22.4.08.07.18.1.28.1.06 0 .12 0 .18-.04L6.4 16.6l4.6 2.07c.25.1.54 0 .66-.26.1-.24 0-.53-.26-.64L6.63 15.6c-.12-.04-.26-.05-.38 0L1 17.57V3.5l5.4-2.04 4.8 2.2c.12.05.27.05.4 0L17.38 1l5.54.92v14.12l-1.4-.26c-.28-.05-.53.13-.58.4-.05.27.12.53.4.58l2 .37c.15.03.3 0 .4-.1.12-.1.2-.24.2-.4V1.53c0-.25-.2-.45-.43-.5z"/><path d="M5.92 3.83v9.6c0 .3.23.52.5.52s.5-.23.5-.5v-9.6c0-.3-.22-.5-.5-.5s-.5.2-.5.48zm5.98 5.53V5.7c0-.28-.23-.5-.5-.5s-.5.22-.5.5v3.66c0 .28.22.5.5.5s.5-.22.5-.5zm6-1.36V3.16c0-.27-.22-.5-.5-.5s-.5.23-.5.5V8c0 .3.23.5.5.5s.5-.2.5-.5zm-2 1.97c-2.58 0-4.7 2.1-4.7 4.67 0 2.38 3.85 8.25 4.3 8.9.08.15.24.24.4.24s.33-.1.42-.23c.44-.66 4.28-6.53 4.28-8.9 0-2.6-2.1-4.68-4.7-4.68zm0 12.38c-1.3-2.07-3.7-6.14-3.7-7.7 0-2.03 1.67-3.68 3.7-3.68s3.7 1.65 3.7 3.67c0 1.58-2.38 5.64-3.7 7.7z"/><path d="M15.9 12.8c-.84 0-1.53.7-1.53 1.54s.7 1.53 1.53 1.53 1.54-.7 1.54-1.53-.7-1.54-1.54-1.54zm0 2.07c-.3 0-.53-.24-.53-.53s.24-.53.53-.53.54.27.54.57-.24.53-.54.53z"/></g></svg>