<svg xmlns="http://www.w3.org/2000/svg" width="24" height="24" viewBox="-0.004 -3.341 24 24"><g fill="#CECECE"><path d="M15.57 12.4c-3.7-1.46-4.35-2.08-4.46-2.24v-.44c.5-.48.8-1.1 1-1.8.3-.23.5-.56.5-.93.1-.4 0-.8-.2-1.1V4.5c0-1.96-1.2-3.1-3.25-3.1S5.9 2.57 5.9 4.5v1.4c-.2.3-.3.7-.24 1.06.06.35.24.7.5.93.2.7.54 1.3.96 1.8v.4c-.1.2-.8.8-4.45 2.22-.35.12-.58.46-.58.83v1.72c0 .5.4.9.9.9h12.3c.5 0 .9-.4.9-.9v-1.7c0-.37-.25-.7-.58-.84zm-.27 2.57c0 .05-.03.07-.06.07H2.88c-.02 0-.05-.02-.05-.07l.04-1.8c4.1-1.6 4.8-2.3 4.96-2.8.02-.04.02-.08.02-.13v-.68c0-.1-.04-.2-.12-.3-.4-.4-.7-1-.9-1.7-.02-.08-.08-.16-.15-.2-.15-.12-.25-.3-.28-.48-.03-.2.02-.4.15-.55.06-.07.1-.16.1-.26V4.53c0-1.48.83-2.26 2.4-2.26 1.62 0 2.44.76 2.44 2.26v1.8c.1.16.16.35.14.55-.03.2-.13.36-.28.47-.1.05-.14.13-.17.22-.2.7-.5 1.28-.9 1.7-.08.08-.13.18-.13.3v.67c0 .05 0 .1.03.13.17.5.87 1.2 5 2.88v1.72z"/><path d="M21.5 13.03c-2.8-1.07-3.34-1.54-3.44-1.67v-.26c.32-.37.57-.83.73-1.36.2-.2.3-.47.4-.76 0-.3-.1-.6-.2-.85V7.08c0-1.54-1-2.46-2.7-2.46s-2.67.92-2.67 2.46v1.05c-.16.25-.23.55-.2.85.06.3.2.57.4.76.2.6.5 1.1.86 1.5.17.15.43.16.6 0 .16-.17.16-.43 0-.6-.3-.3-.54-.74-.68-1.25-.05-.1-.1-.2-.18-.3-.1-.1-.16-.2-.18-.3-.03-.1 0-.27.1-.36.05-.08.1-.17.1-.27V7.1c0-1.06.6-1.63 1.8-1.63 1.2 0 1.8.55 1.8 1.63v1.18c0 .1.03.2.1.27.07.1.1.2.1.34-.03.1-.1.2-.18.3-.1 0-.17.1-.2.2-.15.5-.4.9-.7 1.2-.07.1-.1.2-.1.3v.62c.13.37.54.9 3.93 2.17l.07 1.3h-3.8c-.26 0-.45.2-.45.4 0 .24.2.43.42.43h3.8c.44 0 .8-.36.8-.8v-1.3c0-.33-.2-.63-.5-.75z"/></g></svg>