<svg xmlns="http://www.w3.org/2000/svg" width="24" height="24" viewBox="-4 0 24 24"><g fill="#CECECE"><path d="M6.82 12.46v.07c-.1.1-.53.4-2.1 1-.23.1-.4.32-.4.57v.47c0 .2.18.38.4.38.2 0 .36-.17.36-.38v-.37c2.12-.83 2.4-1.17 2.47-1.44l.02-.1v-.34c0-.1-.04-.2-.1-.27-.2-.18-.33-.44-.4-.74l-.16-.2V11s0-.1.07-.1c.06-.05.1-.13.1-.22V9.9c0-.6.33-.93 1-.93.7 0 1.05.3 1.05.92v.7c0 .1.03.13.1.2 0 .04.03.1 0 .12 0 .03-.02.07-.05.1-.07.04-.12.1-.15.2-.1.3-.24.56-.4.74-.1.07-.1.17-.1.27v.43c.1.3.34.64 2.46 1.47v.36c0 .2.17.4.37.4.2 0 .35-.17.35-.38v-.46c0-.24-.17-.47-.4-.56-1.63-.6-2-.9-2.1-.95v-.1c.2-.22.34-.5.45-.83.16-.13.26-.3.28-.5.04-.2 0-.4-.1-.6v-.6c0-1.08-.7-1.7-1.8-1.7s-1.77.65-1.77 1.68v.63c-.1.2-.15.4-.12.6.04.2.13.4.28.6.1.3.25.6.45.83zm-.26-5.74c.06.45.45.78.93.78h1c.5 0 .8-.33.9-.78l.3-2.67c.02-.26-.06-.5-.24-.72-.2-.2-.45-.33-.7-.33H7.1c-.24 0-.5.12-.7.33-.17.2-.25.47-.22.73l.34 2.66zm.46-2.9c.04-.04.1-.07.14-.07h1.68c.04 0 .1.03.14.08.03.03.06.07.05.13L8.7 6.63c0 .08-.1.12-.2.12h-1c-.1 0-.2-.04-.2-.13l-.33-2.65c0-.06.02-.1.05-.14z"/><path d="M12.23 6H11c-.2 0-.38.17-.38.38s.17.37.38.37h1.23c.56 0 1.02.42 1.02.93v8.07H2.75V7.68c0-.5.46-.93 1.02-.93H5c.2 0 .38-.17.38-.38S5.2 6 5 6H3.77C2.8 6 2 6.75 2 7.68V19.4c0 .9.76 1.6 1.77 1.6h8.46c1 0 1.77-.7 1.77-1.6V7.7c0-.95-.8-1.7-1.77-1.7zm0 14.25H3.77c-.5 0-1.02-.3-1.02-.84v-2.9h10.5v2.9c0 .6-.52.9-1.02.9z"/><path d="M11.3 18H8.45c-.2 0-.38.17-.38.38 0 .2.17.37.38.37h2.83c.2 0 .37-.17.37-.38 0-.2-.17-.37-.38-.37zm-5.1 0H4.7c-.2 0-.37.17-.37.38 0 .2.17.37.38.37h1.5c.2 0 .4-.17.4-.38 0-.2-.1-.37-.3-.37zM8 5.26c.1 0 .2-.03.26-.1.08-.08.12-.17.12-.27s-.04-.2-.12-.3c-.13-.2-.36-.2-.53 0-.07 0-.1.1-.1.2s.03.2.1.26.17.1.27.1z"/></g></svg>