<svg xmlns="http://www.w3.org/2000/svg" width="23.9" height="23.73" viewBox="0 0 23.904 23.733"><g fill="#231F20"><path d="M15.25 21.14c-2.9-1.15-4.27-2.48-4.53-3.14v-.68c.57-.65 1.02-1.5 1.3-2.48.37-.32.6-.77.68-1.26.07-.5-.04-1-.32-1.42V10.2c0-2.67-1.6-4.2-4.4-4.2C5.25 6 3.6 7.57 3.6 10.2v1.96c-.27.42-.4.92-.32 1.42.07.5.3.94.67 1.26.3.97.73 1.83 1.3 2.48V18c-.25.65-1.62 1.98-4.52 3.14-.44.18-.73.6-.73 1.1v1c0 .27.22.5.5.5s.5-.23.5-.5v-1c0-.08.04-.15.1-.17 2.75-1.1 4.77-2.6 5.14-3.85l.02-.14v-.95c0-.13-.05-.25-.14-.34-.56-.6-1-1.5-1.25-2.4-.03-.1-.1-.2-.2-.3-.2-.2-.36-.4-.4-.7-.04-.3.04-.6.23-.8.06-.1.1-.2.1-.3v-2.1C4.6 8.1 5.8 7 8 7c2.24 0 3.38 1.08 3.38 3.2v2.12c0 .1.04.22.1.3.2.24.27.53.23.82 0 .3-.1.54-.4.7-.1.07-.1.16-.2.27-.2 1-.6 1.8-1.2 2.4-.1.1-.1.2-.1.4v1.1c.4 1.24 2.4 2.75 5.16 3.85.06 0 .1.1.1.16v1c0 .28.23.5.5.5s.5-.22.5-.5v-1c0-.5-.3-.92-.73-1.1z"/><path d="M18.93 0H14.4C12 0 9.96 1.86 9.53 4.43c-.04.27.14.53.4.57.28.05.54-.14.6-.4.33-2.1 1.97-3.6 3.9-3.6h4.52c2.18 0 3.96 1.97 3.96 4.4 0 2.12-1.3 3.94-3.2 4.3-.1.02-.14.06-.2.1L16 12.7v-2.3c0-.27-.23-.5-.5-.5h-1.2c-.28 0-.5.23-.5.5s.22.5.5.5h.7v2.87c0 .2.1.37.3.46.05.03.12.04.2.04.1 0 .22-.04.32-.12l4.15-3.5c2.3-.5 3.95-2.7 3.95-5.26 0-3-2.22-5.4-4.96-5.4z"/><path d="M13.56 4.9h5.8c.3 0 .52-.2.52-.5s-.23-.5-.5-.5h-5.82c-.28 0-.5.24-.5.5s.22.5.5.5zm0 2h2.9c.28 0 .5-.2.5-.5s-.22-.5-.5-.5h-2.9c-.28 0-.5.24-.5.5s.22.5.5.5z"/></g></svg>