<svg xmlns="http://www.w3.org/2000/svg" width="300" height="300" viewBox="0 0 300 300"><g fill="#092E20"><path d="M38.06 98.83h16.02v74.15c-8.2 1.56-14.25 2.2-20.8 2.2-19.56 0-29.75-8.86-29.75-25.8 0-16.34 10.82-26.95 27.56-26.95 2.6 0 4.54.2 6.93.83V98.83zm0 37.32c-1.87-.62-3.43-.83-5.4-.83-8.12 0-12.8 5-12.8 13.73 0 8.53 4.47 13.2 12.7 13.2 1.76 0 3.22-.1 5.5-.4v-25.7z"/><path d="M79.57 123.56v37.14c0 12.8-.93 18.94-3.74 24.24-2.6 5.1-6.04 8.33-13.1 11.86l-14.9-7.07c7.1-3.33 10.52-6.24 12.7-10.72 2.3-4.53 3.02-9.84 3.02-23.8v-31.6h16.02zM63.55 98.9h16.02v16.45H63.55V98.9zm25.7 28.3c7.07-3.32 13.83-4.78 21.22-4.78 8.22 0 13.63 2.2 16.02 6.45 1.32 2.4 1.73 5.52 1.73 12.17v32.57c-7.18 1.08-16.23 1.8-22.88 1.8-13.42 0-19.46-4.7-19.46-15.1 0-11.23 8-16.43 27.67-18.1v-3.53c0-2.9-1.46-3.95-5.52-3.95-5.93 0-12.6 1.67-18.83 4.9v-12.4zm25.07 25.5c-10.6 1.03-14.04 2.7-14.04 6.86 0 3.12 1.97 4.58 6.34 4.58 2.4 0 4.58-.2 7.7-.73v-10.7zm21.74-26.64c9.47-2.5 17.27-3.64 25.18-3.64 8.22 0 14.14 1.87 17.68 5.5 3.33 3.45 4.37 7.2 4.37 15.2v31.42h-16.06v-30.8c0-6.13-2.08-8.42-7.8-8.42-2.2 0-4.16.2-7.4 1.15v38.07h-16v-48.48zm53.46 57.22c5.62 2.9 11.24 4.27 17.17 4.27 10.5 0 14.94-4.27 14.94-14.46v-.36c-3.12 1.56-6.24 2.2-10.4 2.2-14.05 0-23-9.27-23-23.94 0-18.2 13.22-28.5 36.62-28.5 6.86 0 13.2.74 20.9 2.3l-5.48 11.55c-4.28-.83-.35-.1-3.58-.42v1.66l.2 6.75.1 8.74c.12 2.2.12 4.4.23 6.57v4.37c0 13.73-1.15 20.18-4.58 25.48-5 7.8-13.63 11.65-25.9 11.65-6.25 0-11.66-.93-17.28-3.1v-14.8zm31.83-47.85h-1.66c-3.16-.1-6.8.72-9.3 2.28-3.85 2.2-5.83 6.18-5.83 11.8 0 8 3.95 12.6 11.02 12.6 2.2 0 3.94-.43 6.02-1.05v-5.52c0-1.86-.1-3.94-.1-6.12l-.1-7.4-.1-5.3v-1.23zm49.32-13.23c16.02 0 25.8 10.1 25.8 26.44 0 16.75-10.2 27.26-26.42 27.26-16.02 0-25.9-10.1-25.9-26.33 0-16.85 10.2-27.36 26.52-27.36zm-.3 40.8c6.13 0 9.77-5.1 9.77-13.95 0-8.74-3.54-13.94-9.68-13.94-6.34 0-9.98 5.1-9.98 13.98s3.64 13.94 9.88 13.94z"/></g></svg>