<svg xmlns="http://www.w3.org/2000/svg" width="300" height="300" viewBox="0 0 300 300"><path fill="#FFF" d="M290.8 180.35c-.2-.2-.3-.44-.3-.7 0-.43.27-.7.3-.7.7-.47 1.25-.88 1.76-1.32l.24-.2c5.87-5.52 6.28-13.02 1.07-19.06l-9.37-11.92 9.28-11.8c5.36-6.23 4.9-13.72-1.18-19.1-2.84-2.5-5.92-3.78-9.15-3.78-2.6 0-6.47.87-10.17 5.04l-.27.4-5.7 7.38-5.8-7.34-.3-.34c-3.7-4.16-7.53-5.03-10.13-5.03-3.23 0-6.32 1.28-9.2 3.8-.23.2-.45.4-.66.63-2.4-2.84-6-4.37-10.4-4.37-8.33 0-13.72 5.37-13.72 13.68v28.6h-5.52c-.63 0-1.15-.5-1.15-1.17v-27.4c0-8.3-5.35-13.65-13.6-13.65-7.4 0-12.46 4.3-13.4 11.16v-14.4c0-8.3-5.4-13.7-13.7-13.7-8.2 0-13.5 5.4-13.5 13.7v10.2c-4.53-4.45-11.1-6.8-19.4-6.8h-8.4c-7.33 0-13.27 1.8-17.7 5.3-2.3-3.46-6.26-5.4-11.16-5.4h-.24c-6.4.2-9.6 3.25-11.1 5.76-.5.85-1.2 2-5.7 14.95-4.4-12.78-5-13.87-5.38-14.6-1.46-2.8-4.65-6.1-11.6-6.1-3.04 0-5.76.72-7.95 2.13-2.2-1.36-4.94-2.05-7.98-2.05H16.1c-8.26 0-13.6 5.34-13.6 13.6v29.13c0 9.46 2.87 16.6 8.5 21.2.53.5.82 1.2.82 1.96 0 .83-.38 1.63-1.06 2.2l-.14.13c-.68.55-1.27 1.12-1.8 1.75-2.27 2.63-3.47 5.83-3.47 9.24 0 3.82 1.47 7.3 4.25 10 2.64 2.57 6.1 3.9 10 3.9h264c1.73 0 3.35-.3 4.77-.9 5.24-2.02 8.62-6.95 8.62-12.55 0-4.6-2.4-8.8-6.2-11.3z"/><path fill="#373435" d="M52 168.32c0 4.35-2.2 6.53-6.63 6.53H23.2c-13.24 0-19.87-6.77-19.87-20.3v-30.48c0-4.4 2.2-6.62 6.62-6.62h35.07c4.62-.03 6.93 2.16 6.93 6.58-.03 4.3-2.28 6.5-6.76 6.58H16.5v8.88l19.83-.1c4.47.07 6.7 2.35 6.7 6.86.04 4.3-2.15 6.45-6.57 6.45l-19.96.04v2.2c0 4.5 2.25 6.75 6.76 6.75l22.18.05c4.32 0 6.5 2.25 6.5 6.7zm51.7-44.3L85.82 170.4c-1.06 2.67-2.45 4.1-4.17 4.26-1.73.16-3.33.1-4.82-.14-1.48-.25-2.84-1.63-4.08-4.13l-17.7-46.5c0-4.4 2.2-6.68 6.62-6.68 2.8 0 4.6.8 5.4 2.32.82 1.54 4.93 13.34 12.35 35.4 7.36-22.06 11.5-33.84 12.4-35.34.92-1.5 2.72-2.3 5.4-2.4 4.32 0 6.48 2.25 6.48 6.7zm23.7-6.57h8.77c13.3 0 19.96 6.64 19.96 19.92v17.18c0 13.54-6.62 20.3-19.87 20.3h-9.05c-13.1 0-19.7-6.6-19.7-19.86v-17.6c0-13.3 6.7-20 19.9-20zm-.15 13.34c-4.35 0-6.53 2.1-6.53 6.5v17.42c0 4.54 2.18 6.8 6.53 6.8h8.92c4.48 0 6.7-2.26 6.7-6.8v-17.6c0-4.3-2.22-6.4-6.7-6.4h-8.92zm43.3-31.3c4.47 0 6.7 2.23 6.7 6.74v55.1c4.52 0 6.73 2.16 6.64 6.46 0 4.45-2.3 6.7-6.7 6.8l-6.6.1c-4.4-.06-6.6-2.3-6.6-6.7v-61.7c0-4.5 2.12-6.75 6.5-6.75zm70.37 24.5v44.2c0 4.34-2.2 6.5-6.62 6.5l-22.17-.03c-13.25 0-19.87-6.77-19.87-20.3V123.9c0-4.42 2.2-6.63 6.62-6.63s6.63 2.25 6.63 6.73v30.64c0 4.54 2.3 6.8 6.8 6.8h15.4V124c0-4.48 2.3-6.72 6.8-6.72 4.35 0 6.5 2.26 6.5 6.74z"/><path fill="#E1B141" d="M294.52 128.7l-34.13 43.46c-2.9 3.3-6.1 3.5-9.4.62-3.3-3.04-3.4-6.23-.5-9.6l34-43.22c3-3.38 6.16-3.6 9.5-.66 3.26 2.9 3.4 6.02.43 9.4zm-43.5-9.4c3.36-2.94 6.54-2.72 9.54.66l34 43.23c2.95 3.3 2.8 6.5-.44 9.5-3.35 2.9-6.5 2.66-9.4-.6l-34.1-43.48c-2.97-3.4-2.83-6.5.4-9.4z"/><path fill="#373435" d="M17.46 186.46v2.48c-1.24-1.02-2.5-1.52-3.83-1.52-1.46 0-2.68.5-3.67 1.54-1 1-1.5 2.26-1.5 3.73 0 1.4.5 2.6 1.5 3.6s2.22 1.5 3.68 1.5c.75 0 1.4-.14 1.9-.37.3-.1.6-.28.93-.5l1-.7v2.5c-1.23.7-2.5 1.02-3.86 1.02-2 0-3.7-.7-5.1-2.08-1.4-1.4-2.1-3.1-2.1-5.06 0-1.74.6-3.3 1.8-4.7 1.45-1.7 3.35-2.55 5.7-2.55 1.25 0 2.5.34 3.66 1zm11.34 9.76h-6.05l-1.58 3.37h-2.3l7-14.8 6.75 14.7H30.3l-1.5-3.38zm-.87-1.96l-2.1-4.72-2.2 4.72h4.3zm7.85-8.54v11.9h4.16v1.97h-6.3v-13.9h2.14zm8.32 0v11.9h4.15v1.97h-6.3v-13.9h2.14zm23.5.74v2.48c-1.22-1.02-2.5-1.52-3.82-1.52-1.45 0-2.68.5-3.68 1.54-1 1-1.5 2.26-1.5 3.73 0 1.4.5 2.6 1.5 3.6s2.23 1.5 3.7 1.5c.74 0 1.38-.14 1.9-.37.3-.1.6-.28.9-.5.33-.2.66-.44 1-.7v2.5c-1.2.7-2.5 1.02-3.84 1.02-2.02 0-3.75-.7-5.18-2.08-1.42-1.4-2.13-3.1-2.13-5.06 0-1.74.6-3.3 1.78-4.7 1.47-1.7 3.37-2.55 5.7-2.55 1.27 0 2.5.34 3.68 1zm10.8 1.24h-5.68v3.3h5.5v2h-5.5v4.62h5.68v1.97h-7.8v-13.9h7.8v1.9zm2.42 11.9v-14.82l10.32 10.58v-9.64h2.13v14.72l-10.32-10.56v9.7h-2.13zm19.93-11.9v11.9H98.6v-11.9h-3.24v-1.98H104v1.97h-3.25zm12.9 0H108v3.3h5.5v2H108v4.62h5.66v1.97h-7.8v-13.9h7.8v1.9zm7.45 5.98l4.4 5.9h-2.62l-4.04-5.66h-.38v5.67h-2.14v-13.9h2.5c1.87 0 3.22.3 4.05 1 .92.72 1.38 1.8 1.38 3 0 .96-.3 1.8-.86 2.5-.6.7-1.4 1.16-2.3 1.36zm-2.64-1.6h.68c2.02 0 3.03-.75 3.03-2.26 0-1.42-1-2.13-2.95-2.13h-.76v4.4zm22.4 4.14h-6.05l-1.5 3.37H131l7-14.8 6.75 14.7h-2.34l-1.5-3.38zm-.86-1.96l-2.1-4.72-2.2 4.72h4.3zm15.84-7.8v2.48c-1.23-1.02-2.5-1.52-3.82-1.52-1.46 0-2.68.5-3.68 1.54-1 1-1.5 2.26-1.5 3.73 0 1.4.5 2.6 1.5 3.6s2.23 1.5 3.68 1.5c.76 0 1.4-.14 1.92-.37.3-.1.6-.28.9-.5.32-.2.65-.44 1-.7v2.5c-1.22.7-2.5 1.02-3.84 1.02-2.02 0-3.75-.7-5.18-2.08-1.42-1.4-2.13-3.1-2.13-5.06 0-1.74.5-3.3 1.7-4.7 1.45-1.7 3.35-2.55 5.7-2.55 1.24 0 2.5.34 3.7 1zm3.2 13.14v-13.9h2.98c1.42 0 2.54.14 3.37.4.8.28 1.6.74 2.4 1.38 1.4 1.3 2.2 3.03 2.2 5.16 0 2.13-.8 3.85-2.3 5.17-.8.7-1.6 1.2-2.4 1.4-.8.3-1.9.4-3.4.4H159zm2.14-1.97h.97c.96 0 1.75-.1 2.4-.3.62-.2 1.2-.54 1.7-1 1.06-.94 1.58-2.16 1.58-3.67 0-1.52-.52-2.76-1.56-3.7-.93-.85-2.3-1.27-4.12-1.27h-.97v9.9zm22.62-5.75l2.53 3 .1-.08.76-.86.7-.85 1.4 1.4-.7.8c-.3.3-.6.7-1 1.1l2.6 3.1h-2.7l-1.43-1.7c-1.3 1.3-2.64 1.96-4.03 1.96-1.26 0-2.3-.4-3.2-1.18-.85-.8-1.28-1.77-1.28-2.93 0-1.4.67-2.52 2.03-3.43l.9-.6.06-.07.1-.1c-.9-.98-1.4-1.94-1.4-2.88s.35-1.7.97-2.3c.64-.6 1.46-.9 2.46-.9.96 0 1.77.3 2.4.88.64.6.96 1.3.96 2.17 0 .6-.18 1.14-.5 1.62-.35.5-.97 1.02-1.86 1.7zm-1.7 1.17l-.13.08c-.87.6-1.47 1.07-1.78 1.43-.4.36-.5.74-.5 1.14 0 .58.2 1.1.7 1.58.5.46 1 .7 1.6.7.8 0 1.72-.54 2.8-1.6l-2.8-3.33zm.45-2.65l.17-.13c.3-.22.55-.4.75-.58.2-.2.33-.3.42-.5.1-.2.2-.5.2-.8 0-.38-.16-.68-.4-.9-.26-.2-.6-.35-1-.35s-.7.1-1 .35c-.26.23-.4.5-.4.86 0 .4.17.8.5 1.2l.54.66.1.13zm22.75 5.82h-6.07l-1.58 3.37h-2.3l7-14.8 6.76 14.7h-2.3l-1.5-3.38zm-.88-1.96l-2.1-4.72-2.2 4.72h4.3zm5.94 5.34v-14.82l10.32 10.58v-9.64h2.14v14.72l-10.32-10.56v9.7h-2.14zm23.44-3.38h-6.05l-1.58 3.37h-2.3l7-14.8 6.75 14.7h-2.34l-1.48-3.38zm-.87-1.96l-2.1-4.72-2.2 4.72h4.3zm8.07-8.54v11.9h4.15v1.97h-6.3v-13.9H241zm7.83 7.88l-4.62-7.88h2.5l3.3 5.54 3.25-5.54h2.45l-4.7 7.88v6h-2.13v-6zm13.23-5.9v11.9h-2.14v-11.9h-3.25v-1.98h8.63v1.97h-3.25zm7.28-1.98v13.87h-2.14v-13.9h2.14zm13.86.74v2.48c-1.24-1.02-2.52-1.52-3.84-1.52-1.45 0-2.68.5-3.68 1.54-1 1-1.5 2.26-1.5 3.73 0 1.4.5 2.6 1.5 3.6s2.24 1.5 3.7 1.5c.74 0 1.38-.14 1.9-.37.3-.1.6-.28.92-.5l1-.7v2.5c-1.23.7-2.5 1.02-3.85 1.02-2.03 0-3.75-.7-5.18-2.08-1.43-1.4-2.14-3.1-2.14-5.06 0-1.74.6-3.3 1.8-4.7 1.46-1.7 3.35-2.55 5.68-2.55 1.3 0 2.5.34 3.7 1zm10.68 1.32l-1.73 1c-.32-.55-.63-.9-.92-1.07-.3-.2-.7-.2-1.2-.2-.57 0-1.07.17-1.46.5-.4.3-.6.74-.6 1.2 0 .7.53 1.25 1.55 1.66l1.4.57c1.16.45 2 1 2.53 1.66.53.66.8 1.47.8 2.42 0 1.28-.44 2.33-1.3 3.17-.87.8-1.96 1.23-3.25 1.23-1.23 0-2.25-.36-3.05-1.1-.78-.72-1.28-1.72-1.47-3l2.16-.5c.1.8.27 1.37.5 1.7.45.6 1.1.9 1.94.9.66 0 1.2-.24 1.65-.68.44-.4.66-1 .66-1.6 0-.28-.1-.53-.2-.75-.1-.22-.2-.42-.37-.6-.16-.2-.37-.38-.63-.54-.25-.2-.56-.33-.9-.5l-1.37-.55c-1.94-.8-2.9-1.96-2.9-3.5 0-1.03.4-1.9 1.2-2.6.8-.7 1.83-1.06 3.04-1.06 1.63 0 2.9.78 3.8 2.33z"/></svg>