<svg xmlns="http://www.w3.org/2000/svg" width="300" height="300" viewBox="226.213 264.08 300 300"><path d="M245.2 361.6c-4.4 0-7.95 3.53-7.95 7.93v11.36c0 4.4 3.54 7.9 7.94 7.9h38.2l-43.2 29.1c-1.86 1.4-3 3.7-3 6.2v11.33c0 4.4 3.5 7.96 7.9 7.96h114.4c.82 0 1.6-.13 2.36-.36 3.24-1 5.6-4 5.6-7.6V401l49.6 40.34c1.5 1.42 3.4 1.93 5.4 2.1h84.74c4.4 0 8-3.54 8-7.94v-11.3c0-4.4-3.52-7.95-7.92-7.95h-65.4V388.9h65.44c4.4 0 7.94-3.55 7.94-7.95v-11.37c0-4.4-3.53-7.94-7.93-7.94h-84.8c-4.45.3-7.65 3.57-7.92 7.94v34.56l-50.2-40.9c-1.35-1-3-1.6-4.8-1.6h-11.4c-4.4 0-7.93 3.54-7.93 7.94v46.66H291.7l43.44-29.32c1.7-1.46 2.75-3.6 2.75-6v-11.37c0-4.4-3.55-7.94-7.95-7.94h-84.7zm-5.94 84.86c-1.08 0-1.93.86-1.93 1.93v8.7c0 1.06.85 1.92 1.93 1.92h26.97v1.72h-26.97c-1.08 0-1.93.86-1.93 1.93v1.6c0 1.06.85 1.92 1.93 1.92h31.67c1.08 0 1.93-.9 1.93-1.96v-8.8c0-1.05-.85-1.9-1.93-1.9h-26.97v-1.7h26.97c1.08 0 1.93-.88 1.93-1.95v-1.6c0-1.08-.85-1.93-1.93-1.93h-31.67zm44.2 2.1v15.63c0 1.1-.94 2.1-2.1 2.1h-2.44c-1.17 0-2.1-1-2.1-2.1v-15.7c0-1.2.93-2.1 2.1-2.1h2.43c1.17 0 2.1.9 2.1 2.1zm43.42-2.1c-1.08 0-1.93.86-1.93 1.93v1.5c0 1.06.85 1.93 1.93 1.93h12.57v12.3c0 1.14.94 2.1 2.1 2.1H344c1.16 0 2.1-.96 2.1-2.1v-12.3h12.45c1.07 0 1.93-.87 1.93-1.94v-1.6c0-1.06-.86-1.9-1.93-1.9h-31.67zm-38.24 0c-1.08 0-1.93.86-1.93 1.93v8.7c0 1.06.9 1.92 2 1.92h27v1.72h-27c-1.1 0-1.93.86-1.93 1.93v1.6c0 1.06.86 1.92 1.94 1.92h31.67c1.1 0 1.94-.9 1.94-1.96v-8.8c0-1.05-.85-1.9-1.93-1.9H293.4v-1.7h26.96c1.1 0 1.94-.88 1.94-1.95v-1.6c0-1.08-.85-1.93-1.93-1.93H288.7zm76.1 0c-1.08 0-1.94.86-1.94 1.93v15.8c0 1 .86 1.9 1.93 1.9h31.68c1.1 0 2-.9 2-1.96v-1.6c0-1.06-.83-1.9-1.9-1.9h-27V459h26.97c1.08 0 1.93-.86 1.93-1.93v-1.6c0-1.07-.9-1.95-1.97-1.95H369.5v-1.66h26.96c1.08 0 1.93-.88 1.93-1.95v-1.6c0-1-.9-1.9-2-1.9h-31.6zm38.7 0c-1.07 0-1.95.86-1.95 1.93v15.8c0 1.1.9 2.1 2.1 2.1h2.4c1.1 0 2.1-1 2.1-2.1v-12.3h7.8v12.3c0 1.1.9 2.1 2.1 2.1h2.4c1.15 0 2.1-1 2.1-2.1v-12.3h7.8v12.3c0 1.1.94 2.1 2.1 2.1h2.43c1.15 0 2.1-1 2.1-2.1v-15.8c0-1.1-.9-2-1.96-2h-31.6zm39.14 0c-1.07 0-1.93.86-1.93 1.93v15.8c0 1.1.93 2.1 2.1 2.1h2.43c1.16 0 2.1-1 2.1-2.1v-4.5h22.26v4.5c0 1.1.94 2.1 2.1 2.1h2.44c1.16 0 2.1-1 2.1-2.1v-15.8c0-1.1-.85-2-1.93-2h-31.67zm4.7 5.46h22.26v2.33h-22.26v-2.33zm34.22-5.18c-1.08 0-1.94.85-1.94 1.92v8.8c0 1.06.86 1.92 1.93 1.92h26.9v1.72h-26.9c-1.1 0-1.97.88-1.97 1.95v1.6c0 1.06.86 1.92 1.93 1.92h31.6c1.08 0 1.94-.86 1.94-1.93v-8.8c0-1.06-.86-1.92-1.93-1.92h-26.9v-1.72h26.97c1.07 0 1.93-.88 1.93-1.95v-1.6c0-1.06-.86-1.92-1.93-1.92H481.5z"/><path d="M505.1 364.84c-8.17.4-16.35.02-24.53.14-19.9 0-39.82-.32-59.68.35-3.3 1.5-3.4 5.53-3 8.62v37.17c-18.9-15.14-37.4-30.73-56.4-45.67-4.4-1.25-9.1-.05-13.5-.55-2.9.2-5 3.1-4.5 5.9.06 16.25-.05 32.5 0 48.75h-62.7c17.45-12.26 35.63-23.52 52.84-36.12 1.94-4 .14-8.58.96-12.8.16-2.77-1.9-6.1-5.04-5.67-12.15-.2-24.3.1-36.47-.03-16.5.03-33.08-.23-49.57.24-2.93 1.15-3.63 4.78-2.9 7.52.17 3.7-1.27 8.3 1.3 11.5 3.42 2.6 8 .7 11.96 1.3h40.3c-17.44 12.1-35.5 23.4-52.73 35.9-2.1 3.9-.24 8.5-1.06 12.7-.14 2.6 1.3 5.9 4.3 5.8 4.87.52 9.8-.24 14.7.1 33.96-.14 67.9.4 101.8-.27 3.1-1.28 3.36-5.13 2.9-8V394c18.9 15.1 37.37 30.68 56.4 45.54 5.3 1.44 10.87.03 16.3.54 24.07-.15 48.2.42 72.23-.33 3.16-1.43 3.2-5.52 2.7-8.5-.07-3.5 1.2-7.9-1.55-10.65-3.65-2.26-8.1-.55-12.1-1.07h-59.64V385.5c23.56-.22 47.16.48 70.68-.36 3.13-1.54 3.06-5.55 2.6-8.5-.06-3.5 1.2-7.87-1.55-10.64-1.48-1.03-3.34-1.22-5.1-1.18z"/></svg>