<?xml version="1.0" encoding="utf-8"?>
<!-- Generator: Adobe Illustrator 16.0.0, SVG Export Plug-In . SVG Version: 6.00 Build 0)  -->
<!DOCTYPE svg PUBLIC "-//W3C//DTD SVG 1.1//EN" "http://www.w3.org/Graphics/SVG/1.1/DTD/svg11.dtd">
<svg version="1.1" id="Layer_1" xmlns="http://www.w3.org/2000/svg" xmlns:xlink="http://www.w3.org/1999/xlink" x="0px" y="0px"
	 width="300px" height="300px" viewBox="0 0 300 300" enable-background="new 0 0 300 300" xml:space="preserve">
<g id="Document" transform="scale(1 -1)">
	<g id="Spread" transform="translate(0 -1559.06)">
		<g id="Logo">
			<g id="Group">
				<g id="Group_1">
					<g id="Group_2">
						
							<linearGradient id="SVGID_1_" gradientUnits="userSpaceOnUse" x1="0.3501" y1="1063.0835" x2="56.6709" y2="1063.0835" gradientTransform="matrix(0.755 -0.6558 0.6558 0.755 -697.4446 661.3141)">
							<stop  offset="0" style="stop-color:#5A9FD4"/>
							<stop  offset="1" style="stop-color:#306998"/>
						</linearGradient>
						<path marker-end="none" marker-start="none" fill="url(#SVGID_1_)" d="M39.938,1465.881c-3.179-0.015-6.213-0.285-8.884-0.757
							c-7.867-1.39-9.295-4.298-9.295-9.664v-7.083h18.591v-2.363H21.758h-6.977c-5.403,0-10.135-3.247-11.614-9.425
							c-1.708-7.08-1.783-11.499,0-18.893c1.321-5.503,4.477-9.423,9.88-9.423h6.391v8.491c0,6.136,5.31,11.549,11.614,11.549
							h18.568c5.17,0,9.296,4.255,9.296,9.447v17.7c0,5.038-4.251,8.823-9.296,9.664
							C46.428,1465.655,43.116,1465.896,39.938,1465.881L39.938,1465.881z M29.882,1460.183c1.92,0,3.489-1.594,3.489-3.554
							c0-1.951-1.569-3.53-3.489-3.53c-1.927,0-3.488,1.58-3.488,3.53C26.395,1458.589,27.956,1460.183,29.882,1460.183
							L29.882,1460.183z"/>
						
							<linearGradient id="SVGID_2_" gradientUnits="userSpaceOnUse" x1="865.8867" y1="1445.0981" x2="892.3621" y2="1445.0981" gradientTransform="matrix(-0.5735 0.8192 -0.8192 -0.5735 1739.3976 1523.7617)">
							<stop  offset="0" style="stop-color:#FFD43B"/>
							<stop  offset="1" style="stop-color:#FFE873"/>
						</linearGradient>
						<path marker-end="none" marker-start="none" fill="url(#SVGID_2_)" d="M61.237,1446.014v-8.254
							c0-6.4-5.428-11.788-11.615-11.788H31.053c-5.087,0-9.295-4.353-9.295-9.446v-17.701c0-5.039,4.38-8.002,9.295-9.447
							c5.884-1.729,11.528-2.043,18.568,0c4.681,1.355,9.296,4.082,9.296,9.447v7.084H40.349v2.363h18.568h9.296
							c5.401,0,7.416,3.767,9.295,9.423c1.939,5.823,1.858,11.423,0,18.893c-1.335,5.38-3.886,9.425-9.295,9.425H61.237
							L61.237,1446.014z M50.792,1401.186c1.927,0,3.489-1.579,3.489-3.53c0-1.96-1.562-3.555-3.489-3.555
							c-1.921,0-3.488,1.595-3.488,3.555C47.304,1399.607,48.871,1401.186,50.792,1401.186L50.792,1401.186z"/>
					</g>
				</g>
			</g>
			<g id="Group_3">
				<g id="Group_4">
					<path marker-end="none" marker-start="none" fill="#333333" d="M126.054,1426.323c0-4.946-1.169-9.049-3.504-12.31
						c-2.608-3.695-6.221-5.598-10.838-5.708c-3.478-0.107-7.062,0.979-10.756,3.263v-21.115l-5.872,2.119v46.873
						c0.98,1.197,2.234,2.229,3.759,3.099c3.542,2.064,7.846,3.125,12.911,3.179l0.083-0.082c4.63,0.055,8.198-1.848,10.705-5.706
						C124.883,1436.404,126.054,1431.867,126.054,1426.323z M119.207,1426.728c0,9.726-2.785,14.725-8.354,14.997
						c-2.216,0.108-4.38-0.245-6.49-1.06c-1.677-0.597-2.812-1.195-3.407-1.793v-23.228c3.569-2.227,6.733-3.26,9.491-3.098
						C116.288,1412.928,119.207,1417.655,119.207,1426.728z"/>
					<path marker-end="none" marker-start="none" fill="#333333" d="M162.517,1412.463c0.001-6.632-0.665-11.225-1.996-13.778
						c-1.332-2.555-3.872-4.592-7.622-6.115c-3.043-1.195-6.331-1.847-9.862-1.957l-0.976,3.752
						c3.583,0.488,6.108,0.978,7.575,1.468c2.878,0.978,4.861,2.472,5.947,4.485c0.868,1.629,1.303,4.756,1.303,9.376
						c0.005,1.032,0.005,1.549,0,1.549c-4.074-1.852-8.338-2.777-12.792-2.777c-2.934,0-5.515,0.924-7.742,2.772
						c-2.499,2.011-3.749,4.565-3.748,7.664v24.783l6.03,2.039v-24.945c0-2.662,0.856-4.713,2.568-6.155
						c1.712-1.439,3.927-2.132,6.645-2.079c2.716,0.056,5.624,1.115,8.724,3.181v29.104h5.948V1412.463z"/>
					<path marker-end="none" marker-start="none" fill="#333333" d="M185.766,1408.628c-0.708-0.055-1.358-0.083-1.957-0.083
						c-3.371,0-5.993,0.802-7.87,2.405c-1.876,1.604-2.812,3.818-2.812,6.643v23.396h-4.08v3.84h4.08v9.942l5.951,2.12v-12.062
						h6.688v-3.84h-6.688v-23.232c0-2.228,0.598-3.803,1.795-4.728c1.033-0.761,2.664-1.195,4.894-1.305V1408.628z"/>
					<path marker-end="none" marker-start="none" fill="#333333" d="M222.906,1409.123h-6.032v22.981
						c0,2.337-0.542,4.347-1.629,6.032c-1.251,1.901-2.989,2.853-5.218,2.853c-2.718,0-6.114-1.441-10.189-4.32v-27.546h-5.952
						v54.948l5.952,1.875v-25.03c3.804,2.768,7.96,4.151,12.472,4.151c3.151,0,5.704-1.06,7.661-3.177
						c1.957-2.12,2.936-4.755,2.936-7.907V1409.123z"/>
					<path marker-end="none" marker-start="none" fill="#333333" d="M262.116,1427.626c0-5.327-1.36-9.756-4.077-13.289
						c-2.989-3.968-7.122-5.952-12.395-5.951c-5.221-0.001-9.298,1.982-12.234,5.951c-2.664,3.532-3.995,7.961-3.995,13.289
						c0,5,1.44,9.212,4.32,12.636c3.047,3.641,7.043,5.462,11.991,5.462c4.945,0,8.97-1.821,12.067-5.462
						C260.676,1436.839,262.116,1432.627,262.116,1427.626z M255.587,1427.621c0.002,3.751-0.703,6.849-2.118,9.295
						c-1.685,2.989-4.292,4.565-7.824,4.729c-6.521-0.381-9.78-5.052-9.78-14.017l0,0c0-4.132,0.681-7.585,2.045-10.359
						c1.746-3.534,4.366-5.274,7.858-5.221C252.314,1412.104,255.589,1417.295,255.587,1427.621z"/>
					<path marker-end="none" marker-start="none" fill="#333333" d="M297.406,1409.123h-5.949v24.286
						c0,2.663-0.802,4.74-2.407,6.235c-1.603,1.493-3.738,2.214-6.4,2.16c-2.827-0.054-5.518-0.979-8.072-2.771v-29.909h-5.95
						v30.651c3.423,2.5,6.575,4.129,9.457,4.89c2.717,0.707,5.11,1.06,7.176,1.06c1.412,0,2.745-0.137,3.995-0.408
						c2.337-0.543,4.24-1.549,5.707-3.016c1.632-1.631,2.446-3.586,2.444-5.869V1409.123z"/>
				</g>
			</g>
			<g id="Group_5">
				<g id="Group_6">
					<path marker-end="none" marker-start="none" fill="#333333" d="M103.961,1374.516c0-1.3-0.622-2.372-1.868-3.214v-0.021
						c-0.857-0.545-1.857-0.814-3-0.814c-0.757,0-1.536,0.171-2.336,0.514c-0.744,0.301-1.357,0.68-1.843,1.137l0.665,1.094
						c1.129-0.945,2.309-1.408,3.538-1.396c0.843,0.015,1.515,0.2,2.016,0.557c0.671,0.501,1.007,1.135,1.007,1.905
						c0,0.586-0.186,1.06-0.558,1.424c-0.373,0.363-0.974,0.682-1.805,0.951l-1.347,0.459c-1.173,0.386-1.98,0.814-2.424,1.285
						c-0.528,0.559-0.793,1.279-0.793,2.164c0,1.144,0.396,2.072,1.19,2.787c0.793,0.713,1.841,1.071,3.14,1.071
						c1.157,0,2.294-0.407,3.408-1.222l-0.665-1.029c-0.871,0.643-1.757,0.964-2.657,0.964c-0.83,0-1.479-0.2-1.951-0.601
						c-0.471-0.4-0.714-0.942-0.729-1.627c-0.014-0.914,0.759-1.622,2.315-2.122l1.522-0.493c1.086-0.356,1.887-0.836,2.402-1.436
						C103.704,1376.252,103.961,1375.474,103.961,1374.516z"/>
					<path marker-end="none" marker-start="none" fill="#333333" d="M116.863,1377.582L116.863,1377.582
						c0-1.829-0.493-3.436-1.479-4.822c-1.115-1.557-2.557-2.335-4.328-2.335c-1.773,0-3.214,0.778-4.33,2.335
						c-0.985,1.387-1.478,2.994-1.478,4.822c0,1.814,0.505,3.379,1.518,4.693c1.099,1.429,2.526,2.144,4.278,2.144
						c1.769,0,3.202-0.715,4.3-2.144C116.357,1380.96,116.863,1379.396,116.863,1377.582z M115.064,1377.582
						c0,1.457-0.329,2.723-0.987,3.795c-0.757,1.229-1.764,1.844-3.021,1.844c-1.271,0-2.286-0.615-3.043-1.844
						c-0.671-1.072-1.007-2.338-1.007-3.795c0-1.559,0.342-2.908,1.028-4.052c0.772-1.259,1.772-1.888,3.001-1.888
						c1.228,0,2.229,0.629,3,1.888C114.72,1374.673,115.064,1376.023,115.064,1377.582z"/>
					<path marker-end="none" marker-start="none" fill="#333333" d="M126.309,1384.115l-0.556-1.094h-5.399v-4.604h4.52
						l-0.582-1.072h-3.938v-6.729h-1.544v13.498H126.309z"/>
					<path marker-end="none" marker-start="none" fill="#333333" d="M136.315,1383.069h-3.966v-12.452h-1.584v12.452h-4.029
						l0.492,1.051l9.087,0.021V1383.069z"/>
					<path marker-end="none" marker-start="none" fill="#333333" d="M153.217,1384.203l-3.536-13.35l-1.214-0.434l-3.292,11.669
						l-2.932-11.235l-1.218-0.429l-3.773,13.414l1.514,0.556l3.029-10.932l2.874,10.376l1.542,0.56l3.027-10.951l3.058,10.951
						L153.217,1384.203z"/>
					<path marker-end="none" marker-start="none" fill="#333333" d="M164.256,1370.617h-1.65l-1.455,4.201h-5.209l-1.546-4.201
						h-1.177l4.888,13.287l1.521,0.494L164.256,1370.617z M160.834,1375.828l-2.148,6.393l-2.373-6.393H160.834z"/>
					<path marker-end="none" marker-start="none" fill="#333333" d="M173.927,1370.617h-1.887l-3.58,6.32h-1.137v-6.32h-1.562
						v13.524h4.264c1.071,0,1.978-0.354,2.721-1.062c0.742-0.709,1.114-1.57,1.114-2.584c0-1.03-0.343-1.881-1.029-2.553
						c-0.688-0.672-1.547-1.008-2.577-1.008L173.927,1370.617z M172.273,1380.54c0,0.644-0.242,1.218-0.728,1.726
						c-0.486,0.508-1.058,0.762-1.715,0.762h-2.508v-4.996h2.485c0.73,0,1.322,0.238,1.779,0.719
						C172.045,1379.228,172.273,1379.826,172.273,1380.54z"/>
					<path marker-end="none" marker-start="none" fill="#333333" d="M183.379,1384.141l-0.534-1.094h-5.423v-4.63h4.501
						l-0.558-1.072h-3.943v-5.654h5.83v-1.074h-7.373v13.503L183.379,1384.141z"/>
					<path marker-end="none" marker-start="none" fill="#333333" d="M199.368,1384.115l-0.558-1.094h-5.4v-4.604h4.521l-0.581-1.072
						h-3.94v-6.729h-1.543v13.498H199.368z"/>
					<path marker-end="none" marker-start="none" fill="#333333" d="M211.414,1377.582L211.414,1377.582
						c0-1.829-0.493-3.436-1.479-4.822c-1.114-1.557-2.559-2.335-4.33-2.335c-1.771,0-3.213,0.778-4.328,2.335
						c-0.986,1.387-1.479,2.994-1.479,4.822c0,1.814,0.506,3.379,1.52,4.693c1.097,1.429,2.523,2.144,4.276,2.144
						c1.77,0,3.202-0.715,4.301-2.144C210.907,1380.96,211.414,1379.396,211.414,1377.582z M209.614,1377.582
						c0.001,1.457-0.328,2.723-0.985,3.795c-0.759,1.229-1.766,1.844-3.023,1.844c-1.27,0-2.284-0.615-3.041-1.844
						c-0.672-1.072-1.008-2.338-1.008-3.795c0-1.559,0.344-2.908,1.028-4.052c0.772-1.259,1.772-1.888,3.001-1.888
						s2.229,0.629,3,1.888C209.272,1374.673,209.615,1376.023,209.614,1377.582z"/>
					<path marker-end="none" marker-start="none" fill="#333333" d="M223.002,1375.203c0-1.4-0.467-2.547-1.403-3.439
						s-2.112-1.339-3.525-1.339c-1.373,0-2.519,0.442-3.439,1.328c-0.924,0.886-1.383,2.03-1.383,3.429v8.68l1.605,0.537v-8.958
						c0-2.501,1.115-3.744,3.347-3.729c1.114,0,1.99,0.343,2.625,1.027c0.637,0.687,0.956,1.601,0.956,2.743v8.635h1.218V1375.203z"
						/>
					<path marker-end="none" marker-start="none" fill="#333333" d="M235.668,1370.617h-1.544l-7.563,11.059v-11.059h-1.093v13.352
						l1.24,0.429l7.888-11.532v11.252h1.072V1370.617z"/>
					<path marker-end="none" marker-start="none" fill="#333333" d="M247.886,1377.151c0-1.757-0.486-3.285-1.457-4.585
						c-1.044-1.4-2.35-2.1-3.921-2.1c-1.473,0-2.894,0.557-4.266,1.672v12.003l4.33-0.026c1.729-0.015,3.077-0.757,4.049-2.229
						C247.464,1380.586,247.886,1379.008,247.886,1377.151z M246.106,1376.98c0,4.041-1.528,6.062-4.586,6.062h-1.692v-10.541
						c0.687-0.628,1.472-0.942,2.357-0.942c1.229,0,2.214,0.593,2.957,1.778C245.786,1374.38,246.106,1375.593,246.106,1376.98z"/>
					<path marker-end="none" marker-start="none" fill="#333333" d="M259.779,1370.617h-1.649l-1.455,4.201h-5.21l-1.545-4.201
						h-1.177l4.886,13.287l1.521,0.494L259.779,1370.617z M256.357,1375.828l-2.147,6.393l-2.375-6.393H256.357z"/>
					<path marker-end="none" marker-start="none" fill="#333333" d="M268.505,1383.069h-3.967v-12.452h-1.585v12.452h-4.028
						l0.493,1.051l9.087,0.021V1383.069z"/>
					<path marker-end="none" marker-start="none" fill="#333333" d="M271.8,1370.617h-1.585v13.225l1.585,0.535V1370.617z"/>
					<path marker-end="none" marker-start="none" fill="#333333" d="M285.352,1377.582L285.352,1377.582
						c0-1.829-0.493-3.436-1.479-4.822c-1.114-1.557-2.559-2.335-4.329-2.335c-1.772,0-3.215,0.778-4.328,2.335
						c-0.986,1.387-1.479,2.994-1.479,4.822c0,1.814,0.506,3.379,1.518,4.693c1.098,1.429,2.524,2.144,4.278,2.144
						c1.768,0,3.202-0.715,4.3-2.144C284.845,1380.96,285.352,1379.396,285.352,1377.582z M283.551,1377.582
						c0.001,1.457-0.327,2.723-0.985,3.795c-0.758,1.229-1.765,1.844-3.021,1.844c-1.271,0-2.286-0.615-3.043-1.844
						c-0.671-1.072-1.008-2.338-1.008-3.795c0-1.559,0.344-2.908,1.029-4.052c0.771-1.259,1.771-1.888,3.002-1.888
						c1.228,0,2.228,0.629,2.998,1.888C283.208,1374.673,283.552,1376.023,283.551,1377.582z"/>
					<path marker-end="none" marker-start="none" fill="#333333" d="M297.5,1370.617h-1.545l-7.564,11.059v-11.059h-1.094v13.352
						l1.241,0.429l7.89-11.532v11.252h1.072V1370.617z"/>
				</g>
			</g>
			
				<linearGradient id="SVGID_3_" gradientUnits="userSpaceOnUse" x1="-2684.4639" y1="1873.9004" x2="-2622.3955" y2="1873.9004" gradientTransform="matrix(1 1.588576e-04 -6.269547e-06 1 2919.8008 -476.9581)">
				<stop  offset="0" style="stop-color:#4C8CBF"/>
				<stop  offset="1" style="stop-color:#306898"/>
			</linearGradient>
			<path fill="url(#SVGID_3_)" d="M297.396,1395.652v1.748c-0.001,1.164-0.945,2.109-2.109,2.109l-119.918-0.02
				c-1.165,0-2.11-0.945-2.109-2.11v-1.747c0-1.165,0.945-2.109,2.111-2.109l119.917,0.02
				C296.451,1393.542,297.396,1394.487,297.396,1395.652z"/>
		</g>
		<g id="Layer_1_1_">
		</g>
	</g>
</g>
</svg>
