<?xml version="1.0" encoding="utf-8"?>
<!-- Generator: Adobe Illustrator 16.0.0, SVG Export Plug-In . SVG Version: 6.00 Build 0)  -->
<!DOCTYPE svg PUBLIC "-//W3C//DTD SVG 1.1//EN" "http://www.w3.org/Graphics/SVG/1.1/DTD/svg11.dtd">
<svg version="1.1" id="Layer_1" xmlns="http://www.w3.org/2000/svg" xmlns:xlink="http://www.w3.org/1999/xlink" x="0px" y="0px"
	 width="300px" height="300px" viewBox="0 0 300 300" enable-background="new 0 0 300 300" xml:space="preserve">
<g>
	<path fill="#D1181F" d="M30.78,125.605c0.326,1.523,0.97,4.195,1.965,6.933c0.396,1.05,0.828,2.09,1.308,3.111v0.002
		c0.632,1.3,1.354,2.506,2.172,3.492c3.042-3.594,7.547-5.917,12.604-6.03c0.065-0.98,0.224-2.887,0.587-5.243
		c0.207-1.826,0.542-3.642,1.014-5.418c0.373-1.411,0.833-2.781,1.358-4.117c0.511-1.382,1.113-2.718,1.815-3.948
		c3.191-5.979,7.96-10.97,13.932-14.453c6.822-3.978,14.748-5.647,22.551-4.723c0.607,2.769,3.045,4.81,5.939,4.81
		c3.355,0,6.086-2.758,6.086-6.149c0-3.391-2.73-6.148-6.086-6.148c-2.042,0-3.896,1.006-5.021,2.675
		c-8.941-1.134-18.062,0.739-25.887,5.302c-9.614,5.609-16.489,14.657-19.361,25.485c-0.735,2.774-1.19,5.615-1.357,8.458
		c-2.297,0.541-4.504,1.485-6.487,2.768c-0.733-1.704-1.339-3.457-1.811-5.232c-2.539-9.565-1.239-19.561,3.666-28.142
		c3.99-6.979,9.92-12.315,17.191-15.478c1.143,1.261,2.757,1.99,4.481,1.99c3.355,0,6.085-2.757,6.085-6.149
		c0-3.391-2.73-6.151-6.085-6.151c-3.202,0-5.834,2.507-6.073,5.681c-8.378,3.558-15.208,9.65-19.789,17.662
		c-3.653,6.396-5.585,13.631-5.585,20.92C29.992,120.22,30.259,122.93,30.78,125.605"/>
	<path fill="#D1181F" d="M118.796,170.14c-3.355,0-6.085,2.76-6.085,6.149c0,0.631,0.094,1.246,0.281,1.841
		c-6.346,4.775-13.885,7.295-21.863,7.295c-12.624,0-24.445-6.668-31.143-17.484c6.143-3.804,9.907-10.542,9.907-17.876
		c0-7.334-3.767-14.073-9.907-17.88c6.695-10.812,18.517-17.483,31.143-17.483c7.981,0,15.521,2.523,21.863,7.299
		c-0.186,0.595-0.281,1.217-0.281,1.837c0,3.393,2.73,6.153,6.085,6.153c3.357,0,6.089-2.76,6.089-6.153
		c0-3.391-2.732-6.149-6.089-6.149c-0.919,0-1.815,0.209-2.631,0.605c-7.242-5.55-15.878-8.479-25.037-8.479
		c-14.372,0-27.775,7.618-35.334,19.957c-0.52,1.036-1.055,2.425-1.392,4.13c6.854,2.188,11.822,8.594,11.822,16.163
		c0,7.57-4.968,13.974-11.824,16.165c0.334,1.691,0.863,3.071,1.38,4.105c7.557,12.353,20.969,19.978,35.348,19.978
		c9.158,0,17.794-2.929,25.033-8.477c0.82,0.396,1.715,0.604,2.635,0.604c3.357,0,6.089-2.76,6.089-6.149
		S122.154,170.14,118.796,170.14"/>
	<path fill="#D1181F" d="M24.331,209.641c-0.613,0-1.231,0.097-1.82,0.285c-4.729-6.41-7.224-14.027-7.224-22.086
		c0-7.579,2.32-14.856,6.468-20.953l-0.005-0.002c0.028-0.038,0.053-0.069,0.08-0.105c2.226-3.244,4.96-6.157,8.162-8.586
		c0.005,0.014,0.012,0.029,0.019,0.039c1.43-1.04,2.581-1.633,3.389-1.97c-0.758-1.921-1.187-4.007-1.187-6.199
		c0-2.17,0.422-4.24,1.167-6.15c-1.352-0.566-3.661-1.852-6.583-4.712c-1.686-1.607-3.198-3.363-4.542-5.239
		c-0.167-0.223-0.333-0.429-0.504-0.662l0.028-0.027c-4.162-6.104-6.491-13.391-6.491-20.985c0-8.06,2.495-15.678,7.224-22.087
		c0.589,0.187,1.205,0.285,1.82,0.285c3.358,0,6.09-2.758,6.09-6.148c0-3.392-2.732-6.15-6.09-6.15c-3.356,0-6.086,2.758-6.086,6.15
		c0,0.929,0.207,1.833,0.598,2.659c-5.494,7.315-8.393,16.042-8.393,25.292c0,13.899,6.771,26.794,18.15,34.656
		c-0.154,1.035-0.232,2.084-0.232,3.12s0.078,2.081,0.232,3.12c-11.379,7.86-18.15,20.754-18.15,34.656
		c0,9.249,2.899,17.975,8.393,25.29c-0.394,0.825-0.598,1.729-0.598,2.66c0,3.391,2.73,6.15,6.086,6.15c3.358,0,6.09-2.76,6.09-6.15
		C30.42,212.398,27.688,209.641,24.331,209.641"/>
	<path fill="#D1181F" d="M96.025,200.104c-2.894,0-5.333,2.045-5.939,4.811c-7.797,0.923-15.727-0.741-22.552-4.723
		c-5.94-3.464-10.691-8.422-13.881-14.36c-0.744-1.285-1.373-2.69-1.908-4.144c-0.507-1.305-0.952-2.64-1.315-4.014
		c-0.469-1.771-0.804-3.581-1.012-5.401c-0.365-2.364-0.523-4.279-0.589-5.259c-5.044-0.114-9.538-2.424-12.579-6.001
		c-3.183,3.808-4.938,11.023-5.512,13.764c-0.488,2.594-0.744,5.215-0.744,7.836c0,7.292,1.93,14.526,5.583,20.92
		c4.581,8.011,11.412,14.105,19.791,17.664c0.236,3.171,2.87,5.682,6.071,5.682c3.356,0,6.085-2.763,6.085-6.152
		s-2.729-6.149-6.085-6.149c-1.725,0-3.339,0.729-4.481,1.99c-7.269-3.161-13.198-8.497-17.191-15.479
		c-4.902-8.582-6.206-18.576-3.665-28.142c0.47-1.775,1.078-3.53,1.813-5.232c1.983,1.282,4.189,2.227,6.483,2.769
		c0.168,2.844,0.623,5.685,1.358,8.456c2.874,10.829,9.748,19.88,19.361,25.486c7.825,4.565,16.95,6.435,25.889,5.302
		c1.125,1.67,2.979,2.678,5.02,2.678c3.357,0,6.086-2.761,6.086-6.15C102.111,202.863,99.382,200.104,96.025,200.104"/>
	<path fill="#231F20" d="M62.681,150.064c0,7.551-6.059,13.67-13.533,13.67c-7.473,0-13.534-6.119-13.534-13.67
		c0-7.551,6.061-13.672,13.534-13.672C56.622,136.392,62.681,142.513,62.681,150.064"/>
	<path fill="#231F20" d="M109.254,141.577l-1.943,3.546c-0.522-0.378-2.576-1.624-5.116-1.624c-1.605,0-3.136,0.604-3.136,1.585
		c0,1.32,1.867,1.624,5.153,2.567c3.361,0.979,5.863,2.79,5.863,6.146c0,3.207-2.914,6.452-8.701,6.452
		c-4.48,0-7.581-2.075-8.292-2.528l2.092-3.924c1.307,0.907,3.437,2.038,6.087,2.038c2.465,0,3.771-0.678,3.771-1.887
		c0-1.395-2.614-1.999-5.301-2.866c-2.876-0.944-5.79-2.113-5.79-5.583c0-3.508,3.621-5.846,8.179-5.846
		C105.744,139.654,108.433,141.011,109.254,141.577"/>
	<path fill="#231F20" d="M128.855,142.556l-2.726,3.433c-0.487-0.49-1.793-1.734-4.445-1.734c-3.211,0-5.489,2.564-5.489,5.581
		c0,3.661,2.391,5.773,5.604,5.773c2.91,0,4.518-1.809,4.591-1.888l2.913,3.511c-0.3,0.3-2.689,3.018-7.955,3.018
		c-5.825,0-10.269-4.073-10.269-10.301c0-5.919,4.37-10.295,10.157-10.295C126.129,139.654,128.667,142.33,128.855,142.556"/>
	<path fill="#231F20" d="M135.237,140.18v3.924c0.484-2.074,2.575-4.414,5.864-4.414c0.447,0,0.933-0.035,1.379,0.038l-0.334,4.792
		c-0.224,0-0.412-0.038-0.597-0.038c-3.548,0-5.939,0.943-5.939,4.225v11.017h-4.966V140.18H135.237z"/>
	<path fill="#231F20" d="M144.42,141.463c0.56-0.378,3.437-1.809,6.796-1.809c5.677,0,7.88,3.168,7.88,6.448l-0.112,9.244
		c0,2.904,0.447,3.583,0.785,4.187l-4.334,0.644c-0.298-0.757-0.409-1.284-0.447-2.002c-0.373,0.378-1.868,2.075-5.266,2.075
		c-4.368,0-7.021-3.509-7.021-6.979c0-4.414,3.176-7.131,7.321-7.131c2.614,0,4.332,1.321,4.444,1.397
		c0-0.114,0.036-0.229,0.036-0.34c0-1.923-0.596-3.547-3.584-3.547c-2.354,0-4.144,1.247-4.631,1.512L144.42,141.463z
		 M150.918,156.176c2.465,0,3.733-1.661,3.733-3.058c0-1.544-1.269-3.092-3.771-3.092c-2.613,0-3.511,1.624-3.511,3.131
		C147.369,154.515,148.49,156.176,150.918,156.176"/>
	<path fill="#231F20" d="M161.704,166.813V144.18c0-1.434-0.187-2.301-0.446-2.717c0.748-0.338,3.36-1.812,8.439-1.812
		c6.982,0,11.65,4.226,11.65,10.639c0,5.697-3.883,9.96-9.709,9.96c-2.913,0-4.704-0.943-5.004-1.094v7.657H161.704z
		 M169.885,144.028c-2.131,0-3.101,0.492-3.213,0.53v9.091c0,1.244,1.717,1.924,3.735,1.924c2.986,0,5.824-1.357,5.824-5.658
		C176.231,145.8,172.908,144.028,169.885,144.028"/>
	<path fill="#231F20" d="M185.75,131.505c1.642,0,2.987,1.282,2.987,3.017c0,1.735-1.383,3.017-2.987,3.017
		c-1.644,0-3.024-1.282-3.024-3.017C182.726,132.824,184.069,131.505,185.75,131.505 M188.214,159.721h-4.928v-19.542h4.928V159.721
		z"/>
	<path fill="#231F20" d="M208.526,159.723h-4.929V147.99c0-2.453-1.269-3.848-4.258-3.848c-1.978,0-2.651,0.188-3.285,0.416v15.165
		h-4.931v-15.92c0-2.264-0.073-1.962-0.597-2.717c1.456-0.529,3.81-1.435,9.076-1.435c5.339,0,8.923,2.606,8.923,8.037V159.723z"/>
	<path fill="#231F20" d="M212.706,166.7l1.939-4.035c0.227,0.15,2.018,1.622,5.678,1.622s5.004-1.698,5.004-4.188v-1.623
		c-0.187,0.152-2.054,1.735-5.34,1.735c-5.229,0-9.56-3.886-9.56-10.26c0-5.32,4.519-10.298,11.426-10.298
		c5.155,0,7.469,1.017,8.628,1.505c-0.374,0.378-0.561,0.491-0.561,2.833v16.598c0,3.81-2.279,8.036-9.672,8.036
		C216.027,168.626,213.116,166.926,212.706,166.7 M224.991,152.479v-7.546c-0.301-0.225-1.569-0.527-3.771-0.527
		c-2.84,0-5.788,1.926-5.788,5.771c0,3.32,2.428,5.394,5.229,5.394C223.31,155.57,224.991,154.215,224.991,152.479"/>
	<path fill="#D1181F" d="M237.794,132.975v8.866c0.6-0.566,2.504-2.187,5.863-2.187c5.64,0,6.835,3.958,6.835,6.789v13.278h-4.968
		v-12.788c0-1.773-0.969-2.942-3.435-2.942c-2.428,0-3.995,1.547-4.296,1.849v13.881h-4.966v-26.746H237.794z"/>
	<path fill="#D1181F" d="M270.838,140.18v14.185c0,3.582,0.523,4.452,0.749,4.904l-4.819,0.794c-0.41-0.907-0.523-2.116-0.599-3.094
		c-0.371,0.717-1.753,3.281-6.198,3.281c-4.743,0-6.607-3.509-6.607-7.206V140.18h4.929v12.146c0,2.303,1.196,3.474,3.473,3.474
		c2.202,0,4.145-1.474,4.145-3.925V140.18H270.838z"/>
	<path fill="#D1181F" d="M278.676,132.974v7.812c0.337-0.188,2.019-1.131,5.004-1.131c5.938,0,9.785,4.564,9.785,10.032
		c0,7.017-5.266,10.563-11.726,10.563c-3.886,0-5.714-0.49-8.439-1.699c0.485-0.452,0.409-1.812,0.409-2.715v-22.862H278.676z
		 M282.896,144.065c-2.651,0-3.584,0.68-4.221,1.056v9.13c0,0.869,1.458,1.396,3.287,1.396c4.106,0,6.385-1.735,6.385-6.262
		C288.348,146.859,285.848,144.065,282.896,144.065"/>
</g>
</svg>
