<?xml version="1.0" encoding="utf-8"?>
<!-- Generator: Adobe Illustrator 16.0.0, SVG Export Plug-In . SVG Version: 6.00 Build 0)  -->
<!DOCTYPE svg PUBLIC "-//W3C//DTD SVG 1.1//EN" "http://www.w3.org/Graphics/SVG/1.1/DTD/svg11.dtd">
<svg version="1.1" id="Layer_1" xmlns="http://www.w3.org/2000/svg" xmlns:xlink="http://www.w3.org/1999/xlink" x="0px" y="0px"
	 width="300px" height="300px" viewBox="0 0 300 300" enable-background="new 0 0 300 300" xml:space="preserve">
<path fill="#1F70C1" d="M15.25,95.5v7.389h52.555V95.5H15.25z M75.251,95.5v7.389h74.894c0,0-7.651-7.389-17.783-7.389H75.251z
	 M164.837,95.5v7.389h45.31l-2.689-7.389H164.837z M242.63,95.5l-2.689,7.389h44.898V95.5H242.63z M15.25,109.87v7.389h52.555
	v-7.389H15.25z M75.251,109.88v7.379h83.584c0,0-0.977-5.687-2.68-7.379H75.251z M164.837,109.88v7.379h50.277l-2.49-7.379H164.837z
	 M237.252,109.88l-2.489,7.379h50.076v-7.379H237.252z M30.354,124.24v7.399h22.76v-7.399H30.354z M90.355,124.24v7.399h22.76
	v-7.399H90.355z M135.253,124.24v7.399h22.76c0,0,1.445-3.908,1.445-7.399H135.253z M179.939,124.24v7.399h40.353l-2.688-7.399
	H179.939z M232.295,124.24l-2.7,7.399h40.553v-7.399H232.295z M30.354,138.621v7.389h22.76v-7.389H30.354z M90.355,138.621v7.389
	h58.134c0,0,4.864-3.792,6.413-7.389H90.355z M179.939,138.621v7.389H202.7v-4.113l1.444,4.113h41.691l1.551-4.113v4.113h22.761
	v-7.389h-42.726l-2.268,6.258l-2.277-6.258H179.939z M30.354,152.99v7.39h22.76v-7.39H30.354z M90.355,152.99v7.39h64.546
	c-1.55-3.586-6.413-7.39-6.413-7.39H90.355z M179.939,152.99v7.39H202.7v-7.39H179.939z M206.834,152.99l2.753,7.39h31.262
	l2.615-7.39H206.834z M247.387,152.99v7.39h22.761v-7.39H247.387z M30.354,167.36v7.39h22.76v-7.39H30.354z M90.355,167.36v7.39
	h22.76v-7.39H90.355z M135.253,167.36v7.39h24.205c0-3.487-1.445-7.39-1.445-7.39H135.253z M179.939,167.36v7.39H202.7v-7.39
	H179.939z M212.002,167.36l2.669,7.39h20.956l2.69-7.39H212.002z M247.387,167.36v7.39h22.761v-7.39H247.387z M15.662,181.73v7.399
	h52.555v-7.399H15.662z M75.251,181.73v7.399h80.905c1.703-1.694,2.68-7.399,2.68-7.399H75.251z M165.248,181.73v7.399H202.7v-7.399
	H165.248z M217.182,181.73l2.741,7.399h10.663l2.573-7.399H217.182z M247.387,181.73v7.399h37.863v-7.399H247.387z M15.662,196.111
	v7.389h52.555v-7.389H15.662z M75.251,196.111v7.379h57.111c10.132,0,17.783-7.379,17.783-7.379H75.251z M165.248,196.111v7.389
	H202.7v-7.389H165.248z M222.381,196.111l2.636,7.367l0.454,0.012l2.68-7.379H222.381z M247.387,196.111v7.389h37.863v-7.389
	H247.387z"/>
</svg>
