<?xml version="1.0" encoding="utf-8"?>
<!-- Generator: Adobe Illustrator 16.0.0, SVG Export Plug-In . SVG Version: 6.00 Build 0)  -->
<!DOCTYPE svg PUBLIC "-//W3C//DTD SVG 1.1//EN" "http://www.w3.org/Graphics/SVG/1.1/DTD/svg11.dtd">
<svg version="1.1" id="Layer_1" xmlns="http://www.w3.org/2000/svg" xmlns:xlink="http://www.w3.org/1999/xlink" x="0px" y="0px"
	 width="300px" height="300px" viewBox="0 0 300 300" enable-background="new 0 0 300 300" xml:space="preserve">
<g>
	<path fill-rule="evenodd" clip-rule="evenodd" fill="#010101" d="M48.584,174.769c-0.294,0.313-0.702,0.502-1.222,0.565
		l-1.502,0.112c-0.481-0.011-0.862-0.204-1.143-0.583l-1.901-2.959h7.933L48.584,174.769z M76.553,130.397
		c0.132-0.339,0.025-0.577-0.323-0.715l-5.208-1.677c-0.442-0.138-0.822-0.069-1.141,0.208l-0.922,0.791
		c-0.202,0.212-0.134,0.375,0.2,0.489l6.07,1.941c0.388,0.112,0.681,0.018,0.882-0.283L76.553,130.397z M85.247,127.778
		c2.603,2.438,3.378,5.264,2.325,8.479c-0.72,1.533-3.22,3.109-7.495,4.73l-8.574,3.278c-0.453,0.213-0.841,0.502-1.161,0.867
		l-13.704,17.767c-0.48,0.514-1.109,0.652-1.881,0.416l-22.377-7.519c-0.617-0.188-0.757-0.062-0.424,0.377l1.143,1.281
		c0.282,0.314,0.63,0.546,1.043,0.698l26.464,9.098c0.628,0.229,1.109,0.566,1.443,1.019l1.08,1.546
		c0.308,0.553,0.235,0.835-0.217,0.85H39.85c-0.654-0.028-1.301-0.141-1.943-0.34l-14.605-5.089c-0.48-0.189-0.746-0.591-0.8-1.206
		v-1.621c-0.053-0.502-0.301-0.843-0.743-1.019c-2.791-0.827-5.061-2.114-6.812-3.859c-5.501-5.527-8.887-11.746-10.157-18.654
		c-0.493-2.624-0.299-5.093,0.581-7.405c-0.413-1.368-0.192-2.473,0.663-3.314c0.869-0.867,2.097-1.246,3.684-1.133
		c6.692-3.188,13.117-3.923,19.275-2.204l26.125,7.253c0.733,0.203,1.407,0.197,2.022-0.017l0.921-0.359
		c0.415-0.226,0.509-0.509,0.28-0.847l-0.701-0.849c0-0.013-0.005-0.026-0.019-0.037c-0.228-0.252-0.509-0.453-0.842-0.603
		l-21.715-7.123c-3.02-0.98-4.762-2.369-5.229-4.164c-1.202-4.711,1.856-6.493,9.176-5.353l20.194,7.067
		c0.574,0.176,1.068,0.176,1.483,0l0.642-0.319c0.414-0.24,0.506-0.536,0.28-0.888l-0.442-0.642
		c-0.253-0.313-0.567-0.545-0.942-0.695l-19.932-6.746c-2.686-1.219-3.414-2.72-2.185-4.503c1.23-1.784,3.159-2.336,5.79-1.658
		c9.802,2.463,19.181,6.741,28.134,12.835C76.543,120.249,80.948,123.783,85.247,127.778"/>
	<g opacity="0.9882">
		<g>
			<defs>
				<rect id="SVGID_1_" x="4.5" y="104.036" width="83.551" height="71.436"/>
			</defs>
			<clipPath id="SVGID_2_">
				<use xlink:href="#SVGID_1_"  overflow="visible"/>
			</clipPath>
			<path clip-path="url(#SVGID_2_)" fill="#010101" d="M45.86,175.472h-0.001c-0.486-0.013-0.878-0.212-1.162-0.594l-1.903-2.96
				c-0.006-0.009-0.006-0.017,0-0.025c0.004-0.005,0.012-0.012,0.021-0.012h7.934c0.01,0,0.019,0.007,0.022,0.015
				c0.004,0.008,0.004,0.016-0.001,0.024l-2.164,2.861c-0.298,0.32-0.715,0.515-1.24,0.577L45.86,175.472L45.86,175.472z
				 M42.861,171.93l1.879,2.922c0.272,0.367,0.65,0.56,1.119,0.57l1.501-0.112c0.511-0.061,0.917-0.251,1.206-0.557l2.133-2.823
				H42.861z M62.911,170.688H39.85c-0.654-0.026-1.31-0.142-1.952-0.341l-14.606-5.09c-0.487-0.19-0.761-0.604-0.817-1.226v-1.622
				c-0.052-0.488-0.295-0.824-0.726-0.994c-2.779-0.828-5.075-2.128-6.822-3.868c-2.738-2.754-4.983-5.719-6.669-8.814
				c-1.686-3.097-2.861-6.412-3.494-9.853c-0.491-2.613-0.295-5.107,0.58-7.41c-0.411-1.368-0.186-2.488,0.67-3.332
				c0.87-0.866,2.114-1.25,3.699-1.14c4.329-2.062,8.604-3.107,12.709-3.107c2.215,0,4.428,0.304,6.578,0.905l26.125,7.254
				c0.353,0.097,0.697,0.146,1.021,0.146c0.343,0,0.673-0.055,0.984-0.163l0.92-0.357c0.209-0.115,0.336-0.246,0.375-0.39
				c0.032-0.128-0.003-0.269-0.106-0.422l-0.7-0.847c-0.003-0.004-0.005-0.01-0.005-0.016s-0.005-0.012-0.012-0.019
				c-0.227-0.25-0.507-0.452-0.836-0.598l-21.712-7.122c-3.015-0.979-4.779-2.386-5.246-4.181c-0.461-1.807-0.292-3.203,0.502-4.15
				c0.871-1.041,2.521-1.566,4.9-1.566c1.101,0,2.379,0.112,3.802,0.333l20.199,7.067c0.562,0.172,1.056,0.174,1.465,0l0.638-0.318
				c0.401-0.232,0.49-0.51,0.271-0.852l-0.44-0.642c-0.25-0.308-0.564-0.539-0.93-0.687l-19.933-6.746
				c-1.53-0.694-2.438-1.491-2.699-2.37c-0.199-0.668-0.03-1.398,0.501-2.169c0.892-1.293,2.17-1.949,3.797-1.949
				c0.618,0,1.297,0.094,2.022,0.281c4.879,1.226,9.721,2.928,14.389,5.058c4.669,2.13,9.295,4.747,13.751,7.782
				c4.496,3.059,8.942,6.626,13.221,10.604c1.3,1.216,2.155,2.549,2.542,3.959c0.387,1.412,0.317,2.939-0.209,4.543
				c-0.722,1.536-3.248,3.13-7.509,4.746l-8.576,3.277c-0.445,0.211-0.833,0.5-1.149,0.861l-13.703,17.769
				c-0.335,0.354-0.742,0.535-1.214,0.535c-0.216,0-0.451-0.039-0.698-0.113l-22.378-7.517c-0.32-0.1-0.515-0.11-0.556-0.036
				c-0.022,0.042-0.014,0.143,0.162,0.374l1.142,1.279c0.277,0.31,0.625,0.541,1.033,0.691l26.465,9.098
				c0.63,0.229,1.119,0.572,1.455,1.028l1.08,1.545c0.19,0.341,0.238,0.577,0.146,0.726
				C63.232,170.628,63.103,170.683,62.911,170.688z M9.185,127.029c-1.319,0-2.374,0.385-3.134,1.143
				c-0.844,0.831-1.064,1.938-0.656,3.292c0.001,0.004,0.001,0.01,0,0.014c-0.875,2.298-1.071,4.785-0.58,7.393
				c1.262,6.872,4.678,13.142,10.15,18.641c1.739,1.735,4.027,3.032,6.802,3.855c0.45,0.179,0.705,0.528,0.759,1.039v1.622
				c0.052,0.602,0.316,1,0.784,1.184l14.604,5.088c0.637,0.198,1.288,0.312,1.936,0.339h23.06c0.173-0.006,0.287-0.053,0.34-0.138
				c0.082-0.13,0.033-0.357-0.146-0.677l-1.077-1.544c-0.33-0.444-0.811-0.784-1.43-1.007l-26.465-9.099
				c-0.417-0.152-0.771-0.39-1.054-0.706l-1.143-1.281c-0.156-0.206-0.211-0.346-0.166-0.426c0.057-0.104,0.256-0.098,0.618,0.012
				l22.378,7.518c0.241,0.072,0.468,0.11,0.681,0.11c0.457,0,0.851-0.174,1.172-0.52l13.704-17.766
				c0.323-0.367,0.715-0.659,1.169-0.874l8.577-3.279c4.248-1.61,6.765-3.197,7.481-4.717c1.044-3.188,0.263-6.032-2.321-8.451
				c-4.277-3.976-8.723-7.542-13.213-10.601c-8.909-6.064-18.371-10.38-28.125-12.832c-0.719-0.186-1.395-0.28-2.008-0.28
				c-1.609,0-2.871,0.649-3.753,1.927c-0.522,0.76-0.689,1.476-0.494,2.129c0.257,0.866,1.155,1.652,2.668,2.339l19.93,6.746
				c0.378,0.15,0.698,0.387,0.954,0.704l0.443,0.643c0.234,0.365,0.137,0.675-0.289,0.921l-0.643,0.321
				c-0.422,0.179-0.926,0.178-1.504,0.001L39,112.747c-1.416-0.22-2.692-0.333-3.79-0.333c-2.363,0-3.999,0.521-4.86,1.549
				c-0.784,0.935-0.95,2.317-0.493,4.108c0.464,1.778,2.217,3.172,5.213,4.146l21.716,7.123c0.339,0.151,0.625,0.356,0.853,0.609
				c0.014,0.012,0.024,0.027,0.026,0.044l0.697,0.842c0.112,0.167,0.15,0.321,0.114,0.462c-0.041,0.158-0.176,0.298-0.401,0.423
				l-0.925,0.36c-0.318,0.109-0.656,0.166-1.003,0.166c-0.331,0-0.678-0.051-1.035-0.149l-26.126-7.253
				c-2.145-0.6-4.352-0.902-6.562-0.902c-4.099,0-8.368,1.044-12.691,3.105c-0.004,0.002-0.01,0.002-0.014,0.002
				C9.535,127.036,9.357,127.029,9.185,127.029 M75.524,131.504c-0.094,0-0.196-0.015-0.302-0.046l-6.071-1.941
				c-0.192-0.064-0.297-0.145-0.324-0.245c-0.023-0.084,0.015-0.181,0.112-0.285l0.923-0.794c0.327-0.281,0.719-0.353,1.168-0.212
				l5.208,1.677c0.363,0.144,0.477,0.396,0.338,0.747l-0.443,0.758C75.983,131.39,75.777,131.504,75.524,131.504 M70.601,127.96
				c-0.259,0-0.496,0.091-0.704,0.27l-0.92,0.792c-0.084,0.088-0.118,0.17-0.1,0.238c0.022,0.082,0.119,0.153,0.29,0.21l6.069,1.941
				c0.102,0.03,0.199,0.045,0.287,0.045c0.238,0,0.422-0.104,0.566-0.318l0.438-0.753c0.129-0.324,0.027-0.548-0.308-0.681
				l-5.207-1.677C70.87,127.983,70.731,127.96,70.601,127.96"/>
		</g>
	</g>
	<path fill-rule="evenodd" clip-rule="evenodd" fill="#010101" d="M170.835,140.519c0.368-2.072-0.478-3.107-2.534-3.107h-4.631
		c-2.027,0-3.232,1.035-3.614,3.107l-2.867,16.842c-0.352,2.074,0.472,3.108,2.47,3.108h4.674c0.191,0,0.374-0.005,0.55-0.019
		c1.707-0.193,2.735-1.222,3.088-3.09L170.835,140.519z M114.42,117.37c0.382-1.895,1.499-2.874,3.351-2.932h7.055
		c1.705,0.133,2.425,1.109,2.16,2.932l-6.9,40.146c-0.265,1.894,0.515,2.873,2.337,2.934l21.715,0.019l4.145-24.162
		c0.426-2.586,1.684-4.761,3.771-6.524c2.175-1.838,4.52-2.757,7.03-2.757h18.564c2.586,0,4.629,0.919,6.129,2.757
		c1.483,1.763,1.997,3.938,1.543,6.524l-4.298,25.266c-0.457,2.601-1.729,4.776-3.815,6.526c-2.146,1.85-4.514,2.776-7.1,2.776
		l-61.904-0.022c-1.867-0.044-2.682-1.029-2.448-2.955L114.42,117.37z"/>
	<path fill-rule="evenodd" clip-rule="evenodd" fill="#010101" d="M191.536,136.309c0.457-2.587,1.743-4.763,3.859-6.526
		c2.116-1.838,4.466-2.756,7.056-2.756h18.517c2.572,0,4.615,0.917,6.13,2.756c1.47,1.763,1.982,3.939,1.542,6.526l-7.517,43.827
		c-0.456,2.573-1.734,4.747-3.837,6.525c-0.073,0.102-0.154,0.176-0.242,0.221c-2.027,1.69-4.277,2.535-6.745,2.535H182.41
		l0.264-1.5c0.515-2.424,1.766-4.481,3.748-6.174c2.102-1.778,4.358-2.696,6.77-2.756c4.731,0,8.722,0.007,11.97,0.024h0.462
		c0.118,0,0.229-0.008,0.331-0.024c1.311-0.146,2.124-0.771,2.448-1.873l1.059-6.238h-14.528c-2.587,0-4.622-0.926-6.107-2.776
		c-1.47-1.69-2.02-3.785-1.653-6.285L191.536,136.309z M212.083,137.41h-4.629c-2.029,0-3.233,1.036-3.614,3.108l-2.868,16.845
		c-0.353,2.072,0.471,3.108,2.472,3.108h4.672c0.19,0,0.375-0.01,0.551-0.023c1.707-0.191,2.735-1.221,3.087-3.085l2.866-16.845
		C214.987,138.446,214.141,137.41,212.083,137.41"/>
	<path fill-rule="evenodd" clip-rule="evenodd" fill="#010101" d="M258.27,140.519c0.367-2.073-0.479-3.108-2.535-3.108h-4.63
		c-2.027,0-3.233,1.036-3.615,3.108l-2.864,16.845c-0.355,2.072,0.469,3.108,2.468,3.108h4.673c0.192,0,0.376-0.01,0.552-0.023
		c1.706-0.191,2.735-1.221,3.087-3.085L258.27,140.519z M270.748,129.783c1.47,1.763,1.983,3.939,1.542,6.526l-7.516,43.827
		c-0.456,2.573-1.734,4.747-3.837,6.525c-0.074,0.102-0.155,0.176-0.242,0.221c-2.028,1.69-4.276,2.535-6.748,2.535h-27.887
		l0.266-1.5c0.514-2.424,1.762-4.481,3.746-6.174c2.102-1.776,4.357-2.696,6.77-2.756c4.731,0,8.723,0.007,11.97,0.024h0.464
		c0.117,0,0.229-0.008,0.33-0.024c1.31-0.146,2.124-0.771,2.447-1.873l1.06-6.238h-14.529c-2.587,0-4.624-0.926-6.107-2.776
		c-1.469-1.69-2.02-3.785-1.654-6.284l4.366-25.507c0.457-2.587,1.743-4.763,3.859-6.526c2.114-1.838,4.467-2.756,7.055-2.756
		h18.518C267.19,127.027,269.235,127.944,270.748,129.783"/>
	<path fill-rule="evenodd" clip-rule="evenodd" fill="#010101" d="M294.428,118.922c-0.354,1.769-1.335,2.739-2.949,2.917h-10.054
		l0.681-4.046c0.354-1.767,1.336-2.739,2.95-2.915h10.054L294.428,118.922z M283.113,126.803h10.053l-6.944,41.012
		c-0.395,1.819-1.489,2.789-3.287,2.907h-9.804l3.773-22.003h0.017l3.241-19.002C280.517,127.95,281.498,126.979,283.113,126.803"/>
</g>
</svg>
